<?xml version="1.0" encoding="UTF-8"?>
<svg width="20px" height="20px" viewBox="10 10 20 20" version="1.1" xmlns="http://www.w3.org/2000/svg" xmlns:xlink="http://www.w3.org/1999/xlink">
    <path d="M28.2652,19.3065 C28.6373667,19.3065 28.9448319,19.5829514 28.9934917,19.94175 L29.0002,20.0415 L29.0002,23.1425 C29.0002,25.1031452 27.4568077,26.7097841 25.5210419,26.811398 L25.3262,26.8165 L19.2642,26.8165 L21.1932,28.7455 C21.4802,29.0335 21.4802,29.4975 21.1932,29.7855 C21.0502,29.9285 20.8622,30.0005 20.6742,30.0005 C20.523,30.0005 20.37244,29.95442 20.245048,29.862772 L20.1542,29.7855 L17.2152,26.8465 C17.0772,26.7085 17.0002,26.5215 17.0002,26.3265 C17.0002,26.1713 17.04948,26.02058 17.139848,25.895332 L17.2152,25.8065 L20.1542,22.8685 C20.4412,22.5815 20.9062,22.5815 21.1932,22.8685 C21.4541091,23.1294091 21.4778281,23.5374256 21.264357,23.8250815 L21.1932,23.9075 L19.7532,25.3475 L25.3262,25.3475 C26.4893304,25.3475 27.443856,24.4426304 27.5246594,23.2997587 L27.5302,23.1425 L27.5302,20.0415 C27.5302,19.6355 27.8592,19.3065 28.2652,19.3065 Z M12.496,23 C13.303,23 13.912,23.24 14.321,23.72 C14.732,24.2 14.952,24.822 14.982,25.586 C14.994,25.95 15,26.254 15,26.5 C15,26.746 14.994,27.045 14.982,27.395 C14.945,28.173 14.727,28.801 14.326,29.281 C13.925,29.761 13.315,30 12.496,30 C11.676,30 11.066,29.761 10.666,29.281 C10.265,28.801 10.047,28.173 10.01,27.395 C10.0057143,27.27 10.002449,27.0822449 10.0009329,26.8313703 L10.0009329,26.1639009 C10.002449,25.9087551 10.0057143,25.716 10.01,25.586 C10.041,24.822 10.261,24.2 10.67,23.72 C11.08,23.24 11.689,23 12.496,23 Z M12.496,24.118 C12.116,24.125 11.832,24.261 11.642,24.527 C11.453,24.793 11.352,25.162 11.339,25.635 C11.3356667,25.7516667 11.3332222,25.9158889 11.331963,26.1276667 L11.331963,26.8359259 C11.3332222,27.0504444 11.3356667,27.2206667 11.339,27.346 C11.352,27.832 11.453,28.206 11.642,28.469 C11.832,28.731 12.116,28.863 12.496,28.863 C12.875,28.863 13.159,28.731 13.349,28.469 C13.539,28.206 13.639,27.832 13.652,27.346 C13.658,27.158 13.661,26.869 13.661,26.481 C13.661,26.092 13.658,25.81 13.652,25.635 C13.639,25.162 13.539,24.793 13.349,24.527 C13.159,24.261 12.875,24.125 12.496,24.118 Z M21.1989,10.0001 C22.0299,10.0001 22.6559,10.2401 23.0779,10.7201 C23.4999,11.1991 23.7269,11.8221 23.7589,12.5861 C23.7699,12.9491 23.7769,13.2541 23.7769,13.5001 C23.7769,13.7461 23.7699,14.0451 23.7589,14.3951 C23.7199,15.1731 23.4949,15.8011 23.0829,16.2811 C22.6699,16.7601 22.0419,17.0001 21.1989,17.0001 C20.3559,17.0001 19.7279,16.7601 19.3159,16.2811 C18.9039,15.8011 18.6779,15.1731 18.6399,14.3951 C18.6339,14.2201 18.6309,13.9221 18.6309,13.5001 C18.6309,13.0721 18.6339,12.7681 18.6399,12.5861 C18.6719,11.8221 18.8989,11.1991 19.3199,10.7201 C19.7409,10.2401 20.3679,10.0001 21.1989,10.0001 Z M14.9771,10 C15.8081,10 16.4341,10.24 16.8551,10.72 C17.2771,11.2 17.5041,11.822 17.5361,12.586 C17.5481,12.95 17.5541,13.254 17.5541,13.5 C17.5541,13.746 17.5481,14.045 17.5361,14.395 C17.4981,15.173 17.2731,15.801 16.8601,16.281 C16.4471,16.761 15.8191,17 14.9771,17 C14.1331,17 13.5051,16.761 13.0931,16.281 C12.6811,15.801 12.4561,15.173 12.4181,14.395 C12.4131,14.27 12.4101408,14.0822449 12.408858,13.8313703 L12.408858,13.1639009 C12.4101408,12.9087551 12.4131,12.716 12.4181,12.586 C12.4491,11.822 12.6761,11.2 13.0981,10.72 C13.5191,10.24 14.1461,10 14.9771,10 Z M27.4224,10 C28.2524,10 28.8804,10.24 29.3004,10.72 C29.7224,11.2 29.9494,11.822 29.9804,12.586 C29.9934,12.95 30.0004,13.254 30.0004,13.5 C30.0004,13.746 29.9934,14.045 29.9804,14.395 C29.9434,15.173 29.7174,15.801 29.3054,16.281 C28.8934,16.761 28.2654,17 27.4224,17 C26.5784,17 25.9504,16.761 25.5384,16.281 C25.1254,15.801 24.9004,15.173 24.8624,14.395 C24.8572571,14.245 24.8543184,14.0046327 24.8535837,13.6732682 L24.8535837,13.3244723 C24.8543184,12.9883673 24.8572571,12.742 24.8624,12.586 C24.8944,11.822 25.1214,11.2 25.5424,10.72 C25.9654,10.24 26.5904,10 27.4224,10 Z M11.1802,15.4541 C11.2432,15.4541 11.2962,15.4771 11.3412,15.5231 C11.3705333,15.5531 11.3900889,15.5875444 11.3998667,15.6264333 L11.4072,15.6881 L11.4072,16.6691 C11.4072,16.7351 11.3872,16.7891 11.3452,16.8351 C11.3185333,16.8651 11.2847556,16.8853222 11.2447556,16.8954704 L11.1802,16.9031 L10.2272,16.9031 C10.1642,16.9031 10.1112,16.8801 10.0662,16.8351 C10.0368667,16.8044333 10.0173111,16.7702111 10.0075333,16.7312481 L10.0002,16.6691 L10.0002,15.6881 C10.0002,15.6231 10.0222,15.5681 10.0662,15.5231 C10.0962,15.4924333 10.1297556,15.4719889 10.1674593,15.4617667 L10.2272,15.4541 L11.1802,15.4541 Z M14.9771,11.118 C14.5861,11.125 14.2931,11.261 14.0981,11.527 C13.9031,11.793 13.7991,12.162 13.7861,12.635 C13.7819333,12.7808333 13.7784611,13.0009722 13.7774194,13.2954167 L13.7774194,13.6667407 C13.7784611,13.9625278 13.7819333,14.1893333 13.7861,14.346 C13.7991,14.832 13.9031,15.206 14.0981,15.469 C14.2931,15.731 14.5861,15.863 14.9771,15.863 C15.3671,15.863 15.6591,15.731 15.8541,15.469 C16.0501,15.206 16.1531,14.832 16.1661,14.346 C16.1731,14.158 16.1751,13.869 16.1751,13.481 C16.1751,13.092 16.1731,12.81 16.1661,12.635 C16.1531,12.162 16.0501,11.793 15.8541,11.527 C15.6591,11.261 15.3671,11.125 14.9771,11.118 Z M21.1989,11.1181 C20.8079,11.1251 20.5159,11.2611 20.3209,11.5271 C20.1259,11.7931 20.0219,12.1621 20.0089,12.6351 C20.0039,12.8101 19.9999,13.0921 19.9999,13.4811 C19.9999,13.8691 20.0039,14.1581 20.0089,14.3461 C20.0219,14.8321 20.1259,15.2061 20.3209,15.4691 C20.5159,15.7311 20.8079,15.8631 21.1989,15.8631 C21.5899,15.8631 21.8819,15.7311 22.0769,15.4691 C22.2729,15.2061 22.3759,14.8321 22.3889,14.3461 C22.3939,14.1894333 22.3968167,13.9626278 22.39765,13.6668407 L22.39765,13.2955167 C22.3968167,13.0010722 22.3939,12.7809333 22.3889,12.6351 C22.3759,12.1621 22.2729,11.7931 22.0769,11.5271 C21.8819,11.2611 21.5899,11.1251 21.1989,11.1181 Z M27.4224,11.118 C27.0314,11.125 26.7384,11.261 26.5444,11.527 C26.3484,11.793 26.2454,12.162 26.2324,12.635 C26.2265667,12.7808333 26.2242056,13.0009722 26.2235806,13.2954167 L26.2235806,13.6667407 C26.2242056,13.9625278 26.2265667,14.1893333 26.2324,14.346 C26.2454,14.832 26.3484,15.206 26.5444,15.469 C26.7384,15.731 27.0314,15.863 27.4224,15.863 C27.8114,15.863 28.1054,15.731 28.3004,15.469 C28.4954,15.206 28.5994,14.832 28.6114,14.346 C28.6164,14.1893333 28.6200111,13.9625278 28.6210759,13.6667407 L28.6210759,13.2954167 C28.6200111,13.0009722 28.6164,12.7808333 28.6114,12.635 C28.5994,12.162 28.4954,11.793 28.3004,11.527 C28.1054,11.261 27.8114,11.125 27.4224,11.118 Z" id="icon-no-decimal"></path>

</svg>
