<?xml version="1.0" encoding="UTF-8"?>
<svg width="14px" height="20px" viewBox="5 2 14 20" version="1.1" xmlns="http://www.w3.org/2000/svg" xmlns:xlink="http://www.w3.org/1999/xlink">
    <path d="M16.8205275,9.53469388 C18.0447248,9.66122449 19,10.7142857 19,11.9918367 L19,19.5306122 C19,20.8938776 17.9122706,22 16.5716743,22 L7.42832569,22 C6.09174312,22 5,20.8938776 5,19.5306122 L5,11.9918367 C5,10.7142857 5.95928899,9.66122449 7.17947248,9.53469388 L7.17947248,6.90204082 C7.17947248,4.2 9.33887615,2 12,2 C14.6611239,2 16.8205275,4.2 16.8205275,6.90204082 L16.8205275,9.53469388 Z M8.81708716,6.90204082 L8.81708716,9.51836735 L15.1829128,9.51836735 L15.1829128,6.90204082 C15.1829128,5.11836735 13.7540138,3.66530612 12,3.66530612 C10.2459862,3.66530612 8.81708716,5.11836735 8.81708716,6.90204082 Z M17.3623853,19.5306122 L17.3623853,11.9918367 C17.3623853,11.5469388 17.0091743,11.1877551 16.5716743,11.1877551 L7.42832569,11.1877551 C6.99082569,11.1877551 6.63761468,11.5469388 6.63761468,11.9918367 L6.63761468,19.5306122 C6.63761468,19.9755102 6.99082569,20.3346939 7.42832569,20.3346939 L16.5716743,20.3346939 C17.0091743,20.3346939 17.3623853,19.9714286 17.3623853,19.5306122 Z M12,15.7959184 C12.453555,15.7959184 12.8188073,16.1714286 12.8188073,16.6285714 L12.8188073,18.2653061 C12.8188073,18.7265306 12.453555,19.0979592 12,19.0979592 C11.546445,19.0979592 11.1811927,18.7265306 11.1811927,18.2653061 L11.1811927,16.6285714 C11.1811927,16.1673469 11.546445,15.7959184 12,15.7959184 L12,15.7959184 Z" id="Shape"></path>
</svg>
