<?xml version="1.0" encoding="UTF-8"?>
<svg width="24px" height="24px" viewBox="0 0 24 24" version="1.1" xmlns="http://www.w3.org/2000/svg" xmlns:xlink="http://www.w3.org/1999/xlink">
    <path d="M20.53363,9.08612781 C20.8322704,10.0036069 21,10.9810846 21,11.9993947 C21,17.0892786 16.9630359,21.2300176 11.9998773,21.2300176 C9.92084892,21.2300176 8.01118652,20.4958676 6.48607481,19.2767288 L6.48607481,19.2767288 L6.7429874,21.1208534 C6.80107911,21.5425104 6.51634795,21.9316682 6.10643327,21.9916669 C6.06961459,21.9975001 6.03443229,22 5.99924999,22 C5.63188134,22 5.3111497,21.7233396 5.25796715,21.3391817 L5.25796715,21.3391817 L4.75723305,17.7492636 C4.72941449,17.5467682 4.78096065,17.3417729 4.90041682,17.1784433 C5.019873,17.015947 5.19742087,16.9076161 5.39378719,16.8792834 L5.39378719,16.8792834 L8.89401674,16.3667951 C9.31374973,16.3051299 9.68439115,16.5992898 9.74248285,17.0192802 C9.80139275,17.440104 9.51666159,17.8292618 9.10674691,17.8892604 L9.10674691,17.8892604 L7.48181566,18.1275883 C8.73937826,19.1042327 10.3004905,19.6917193 11.9998773,19.6917193 C16.1423883,19.6917193 19.5002523,16.2476312 19.5002523,11.9993947 C19.5002523,11.4269078 19.4347968,10.8694205 19.3186134,10.3319327 L19.3186134,10.3319327 Z M17.3936508,2.00762256 C17.8133838,1.94845724 18.1840252,2.24011725 18.2429351,2.66010768 L18.2429351,2.66010768 L18.742851,6.25002582 C18.7706696,6.4525212 18.7191234,6.65751652 18.6004855,6.82084613 C18.4810293,6.98334243 18.3034814,7.09167329 18.1062969,7.12000598 L18.1062969,7.12000598 L14.6060674,7.63249429 C14.5700669,7.63832749 14.5340664,7.64082743 14.4988841,7.64082743 C14.1315154,7.64082743 13.8107838,7.36333376 13.7576012,6.98000917 C13.6995095,6.55918543 13.9842407,6.17002764 14.3941554,6.11002901 L14.3941554,6.11002901 L16.4388196,5.81003585 C15.1951663,4.87005728 13.663509,4.30757011 12.0001227,4.30757011 C7.85842989,4.30757011 4.49974772,7.75165824 4.49974772,11.9990614 C4.49974772,12.5723816 4.56602135,13.1298689 4.68220476,13.6673567 L4.68220476,13.6673567 L3.46637,14.9131616 C3.16854775,13.9956825 3,13.0182048 3,11.9990614 C3,6.91001077 7.03778233,2.76927185 12.0001227,2.76927185 C13.8312386,2.76927185 15.5338982,3.33675891 16.9567358,4.30423685 L16.9567358,4.30423685 L16.7579149,2.87760272 C16.6998232,2.45677898 16.9837361,2.06762119 17.3936508,2.00762256 Z" id="Combined-Shape"></path>
</svg>
