<?xml version="1.0" encoding="UTF-8"?>
<svg width="24px" height="24px" viewBox="0 0 24 24" version="1.1" xmlns="http://www.w3.org/2000/svg" xmlns:xlink="http://www.w3.org/1999/xlink">
    <path d="M17.9997273,20.6366667 L5.538,20.6366667 L5.538,6.54583333 L17.9997273,6.54583333 L17.9997273,20.6366667 Z M14.9258182,5.1825 L9.07336364,5.1825 C9.60190909,4.10916667 10.7072727,3.36333333 12,3.36333333 C13.2919091,3.36333333 14.3972727,4.10916667 14.9258182,5.1825 Z M17.9997273,5.1825 L16.4157273,5.1825 C15.816,3.34 14.0667273,2 12,2 C9.93245455,2 8.18318182,3.34 7.58345455,5.1825 L5.538,5.1825 L3.69218182,5.1825 C3.30927273,5.1825 3,5.4875 3,5.86333333 C3,6.24083333 3.30927273,6.54583333 3.69218182,6.54583333 L4.15363636,6.54583333 L4.15363636,20.6366667 C4.15363636,21.39 4.773,22 5.538,22 L17.9997273,22 C18.7647273,22 19.3840909,21.39 19.3840909,20.6366667 L19.3840909,6.54583333 L20.307,6.54583333 C20.6899091,6.54583333 21,6.24083333 21,5.86333333 C21,5.4875 20.6899091,5.1825 20.307,5.1825 L17.9997273,5.1825 Z" id="icon-trash"></path>
</svg>
