<?xml version="1.0" encoding="UTF-8"?>
<svg width="17px" height="20px" viewBox="4 2 17 20" version="1.1" xmlns="http://www.w3.org/2000/svg" xmlns:xlink="http://www.w3.org/1999/xlink">
    <path d="M12.2168579,11.6340942 C10.8936157,11.6340942 9.74768066,11.1592407 8.81094359,10.2229614 C7.87451172,9.28652953 7.3996582,8.14059449 7.3996582,6.81689453 C7.3996582,5.49349977 7.87451172,4.34756469 8.81094359,3.41113281 C9.74737547,2.47470094 10.893158,2 12.2168579,2 C13.5402527,2 14.6861877,2.47470094 15.6227722,3.41098023 C16.5593567,4.34771727 17.0340576,5.49365234 17.0340576,6.81689453 C17.0340576,8.14059449 16.5592041,9.28637695 15.6229248,10.2228088 C14.6863403,11.1593933 13.5404053,11.6340942 12.2168579,11.6340942 Z M9.63980102,4.23983766 C8.92111207,4.9585266 8.57168578,5.80157469 8.57168578,6.81689453 C8.57168578,7.83251953 8.92111207,8.67556762 9.63980102,9.39410398 C10.3586426,10.1126404 11.2015381,10.4620666 12.2168579,10.4620666 C13.2323303,10.4620666 14.0753784,10.112793 14.7940674,9.39410398 C15.5126037,8.67541504 15.86203,7.83251953 15.86203,6.81689453 C15.86203,5.80157469 15.5126038,4.9585266 14.7940674,4.23983766 C14.0753784,3.52130125 13.2323303,3.17202758 12.2168579,3.17202758 C11.2012329,3.17202758 10.3583374,3.52130125 9.63980102,4.23983766 Z M20.6456604,17.3790283 C20.6723633,17.7598877 20.6860962,18.1573791 20.6860962,18.5603638 C20.6860962,19.6046753 20.3542175,20.4501648 19.6996155,21.0730286 C19.0531006,21.6881104 18.197998,22 17.1581116,22 L7.52798461,22 C6.48779297,22 5.63269043,21.6881104 4.98632812,21.0730286 C4.33187867,20.449707 4,19.6045227 4,18.5605164 C4,18.158905 4.01342773,17.7614136 4.03997805,17.3794861 C4.06698609,16.9888611 4.12145996,16.5635986 4.20202637,16.1152954 C4.28320312,15.6630249 4.38772582,15.2356262 4.51269531,14.8448486 C4.64208984,14.4406433 4.81787109,14.0419312 5.03500367,13.6596985 C5.2602234,13.2631226 5.52511598,12.9178162 5.82235719,12.6333923 C6.13348391,12.3356934 6.51419066,12.0965881 6.95394898,11.9224854 C7.39233398,11.7488403 7.87817383,11.6607971 8.39819336,11.6607971 C8.60235594,11.6607971 8.79980469,11.7445679 9.18081664,11.9928284 C9.41900633,12.1480102 9.69366453,12.3250122 9.99716187,12.5189514 C10.2586975,12.6858826 10.6137695,12.8422852 11.0516968,12.9837341 C11.4797058,13.1221313 11.9139709,13.1923218 12.3424377,13.1923218 C12.7712097,13.1923218 13.2054748,13.1221313 13.6331787,12.9837341 C14.0715637,12.8421326 14.4264832,12.68573 14.6884766,12.5187988 C14.994873,12.3230286 15.2693787,12.1460266 15.5040588,11.9929809 C15.885376,11.7447205 16.0828247,11.6609497 16.2869873,11.6609497 C16.8068543,11.6609497 17.2928467,11.7488403 17.7313843,11.9223328 C18.1714477,12.0967407 18.552002,12.3358459 18.8628235,12.6332398 C19.1600647,12.917511 19.4249573,13.26297 19.6503296,13.6596985 C19.8677673,14.0419312 20.043396,14.4407959 20.1727905,14.8446961 C20.2979126,15.2354736 20.4024353,15.6630249 20.4836121,16.1152954 C20.5640259,16.564209 20.6186523,16.9893188 20.6456604,17.3790283 L20.6456604,17.3790283 Z M18.89151,20.223877 C19.3103637,19.8253174 19.513916,19.281189 19.5140686,18.5605164 C19.513916,18.1846924 19.5014038,17.8148193 19.476532,17.460968 L19.476532,17.4606629 C19.4524231,17.1127625 19.4029846,16.7297668 19.3300476,16.3222046 C19.2580261,15.9207459 19.1660156,15.5438538 19.0566101,15.2020569 C18.9519348,14.875061 18.8088074,14.5508118 18.6313477,14.2387695 C18.4621277,13.940918 18.2674255,13.6856384 18.0525818,13.4801025 C17.8516235,13.2878418 17.5983277,13.1302185 17.3000183,13.0121155 C17.0238342,12.9028625 16.713623,12.8430481 16.376709,12.8340454 C16.3356629,12.8558655 16.2625732,12.8976746 16.144165,12.9747314 C15.9032288,13.131897 15.6333008,13.3058472 15.3191223,13.5066528 C14.9725952,13.7276001 14.526886,13.9267273 13.9937439,14.098999 C13.4494629,14.2749329 12.8938904,14.3643494 12.3425903,14.3643494 C11.7912903,14.3643494 11.2358704,14.2749329 10.6912842,14.0988464 C10.1585998,13.9268799 9.71273805,13.7276001 9.36666871,13.506958 C9.05966187,13.3108826 8.78195191,13.1317444 8.54101562,12.9747314 C8.42260742,12.897522 8.34951781,12.8558655 8.30847168,12.8340454 C7.9717102,12.8430481 7.66149902,12.9028625 7.38546754,13.0121155 C7.08700562,13.1302185 6.83370973,13.2876892 6.63275148,13.4801025 C6.41790773,13.685791 6.22320555,13.9410705 6.05398559,14.238617 C5.87667848,14.5508118 5.73370359,14.8749084 5.62887574,15.2022095 C5.51962281,15.5435486 5.42776488,15.9205933 5.35559082,16.3223572 C5.28250121,16.7291565 5.23321531,17.1119995 5.20910645,17.4605102 C5.18438719,17.8157348 5.17202758,18.1857605 5.17202758,18.5605164 C5.17202758,19.2810364 5.37557984,19.8253174 5.79443359,20.2240295 C6.22137453,20.6303711 6.78839109,20.8279724 7.52798461,20.8279724 L17.157959,20.8279724 C17.8973999,20.8279724 18.4644165,20.6303711 18.89151,20.223877 L18.89151,20.223877 Z" id="icon-user"></path>

</svg>
