<?xml version="1.0" encoding="UTF-8"?>
<svg width="18px" height="18px" viewBox="0 0 18 18" version="1.1" xmlns="http://www.w3.org/2000/svg" xmlns:xlink="http://www.w3.org/1999/xlink">
    <g id="Dropdown-Option" stroke="none" stroke-width="1" fill-rule="evenodd">
        <g id="Dropdown-Search-Transaction-Specific-Date" transform="translate(-605.000000, -430.000000)">
            <g id="Group" transform="translate(20.000000, 10.000000)">
                <g id="payee-bank" transform="translate(20.000000, 410.000000)">
                    <g id="Element/Icon/Calendar" transform="translate(564.000000, 10.000000)">
                        <path d="M2.84090906,6.36363626 L2.84090906,3.18181813 L4.43181809,3.18181813 L4.43181809,4.77272719 L6.02272713,4.77272719 L6.02272713,3.18181813 L9.20454519,3.18181813 L9.20454519,4.77272719 L10.7954542,4.77272719 L10.7954542,3.18181813 L13.9772723,3.18181813 L13.9772723,4.77272719 L15.5681813,4.77272719 L15.5681813,3.18181813 L17.1590903,3.18181813 L17.1590903,6.36363626 L2.84090906,6.36363626 Z M2.84090906,15.9090912 L17.1590903,15.9090912 L17.1590903,7.95454562 L2.84090906,7.95454562 L2.84090906,15.9090912 Z M15.5681818,1.59090909 L15.5681818,0 L13.9772727,0 L13.9772727,1.59090909 L10.7954545,1.59090909 L10.7954545,0 L9.20454545,0 L9.20454545,1.59090909 L6.02272727,1.59090909 L6.02272727,0 L4.43181818,0 L4.43181818,1.59090909 L1.25,1.59090909 L1.25,17.5 L18.75,17.5 L18.75,1.59090909 L15.5681818,1.59090909 Z" id="🎨-Icon-color"></path>
                    </g>
                </g>
            </g>
        </g>
    </g>
</svg>
