<?xml version="1.0" encoding="UTF-8"?>
<svg width="20px" height="20px" viewBox="2 2 20 20" version="1.1" xmlns="http://www.w3.org/2000/svg" xmlns:xlink="http://www.w3.org/1999/xlink">
    <path d="M12,2 C6.48601563,2 2,6.48601563 2,12 C2,17.5139844 6.48601563,22 12,22 C17.5139844,22 22,17.5139844 22,12 C22,6.48601562 17.5139844,2 12,2 Z M8.74871094,3.93546875 C8.1459375,4.75703125 7.69816406,5.729375 7.3778125,6.68367187 C6.79550781,6.47492187 6.25644531,6.22523437 5.7721875,5.93796875 C6.60839844,5.07917969 7.62,4.3921875 8.74871094,3.93546875 Z M4.92554688,6.94929687 C5.54941406,7.33851562 6.25507812,7.67007812 7.02125,7.93824219 C6.76863281,9.00597656 6.6171875,10.1574219 6.57664062,11.3477734 L3.32875,11.3477734 C3.4503125,9.71582031 4.024375,8.20792969 4.92554688,6.94929687 Z M4.92550781,17.0506641 C4.024375,15.7921094 3.45027344,14.2841797 3.32871094,12.6521875 L6.5765625,12.6521875 C6.61710938,13.8425781 6.76855469,14.9939844 7.02117188,16.0617188 C6.25503906,16.3298828 5.54945312,16.6614453 4.92550781,17.0506641 Z M5.77222656,18.0619922 C6.25648438,17.7747266 6.79554687,17.5250391 7.37785156,17.3162891 C7.69816406,18.2705078 8.1459375,19.2428516 8.74875,20.0644922 C7.62,19.6078125 6.60839844,18.9208203 5.77222656,18.0619922 Z M11.3478125,20.5752344 C10.0010156,20.0809375 9.093125,18.3103125 8.62832031,16.9463672 C9.48148438,16.7433203 10.3976953,16.6185937 11.3478125,16.5791797 L11.3478125,20.5752344 Z M11.3478125,15.2739453 C10.2773828,15.3153906 9.24097656,15.4578516 8.27316406,15.6927734 C8.05347656,14.7427344 7.92011719,13.7167188 7.88140625,12.6521484 L11.3478125,12.6521484 L11.3478125,15.2739453 L11.3478125,15.2739453 Z M11.3478125,11.3478125 L7.88140625,11.3478125 C7.92007813,10.2832422 8.0534375,9.25726563 8.27316406,8.3071875 C9.24097656,8.54210938 10.2773828,8.68457031 11.3478125,8.72601563 L11.3478125,11.3478125 L11.3478125,11.3478125 Z M11.3478125,7.42082031 C10.3977344,7.38144531 9.48152344,7.25664062 8.62832031,7.05363281 C9.09277344,5.69058594 10.000625,3.91917969 11.3478125,3.42476563 L11.3478125,7.42082031 Z M19.0744922,6.94933594 C19.975625,8.20789062 20.5497266,9.71582031 20.6712891,11.3478125 L17.4234375,11.3478125 C17.3828906,10.1574219 17.2314453,9.00601562 16.9788281,7.93828125 C17.7449609,7.67011719 18.4505469,7.33855469 19.0744922,6.94933594 Z M18.2277734,5.93800781 C17.7435156,6.22527344 17.2044531,6.47496094 16.6221484,6.68371094 C16.3018359,5.72949219 15.8540625,4.75714844 15.25125,3.93550781 C16.38,4.3921875 17.3916016,5.07917969 18.2277734,5.93800781 Z M12.6521875,3.42476563 C13.9989844,3.9190625 14.906875,5.6896875 15.3716797,7.05363281 C14.5185156,7.25667969 13.6023047,7.38140625 12.6521875,7.42082031 L12.6521875,3.42476563 Z M12.6521875,8.72605469 C13.7226172,8.68460938 14.7590234,8.54214844 15.7268359,8.30722656 C15.9465234,9.25726563 16.0798828,10.2832813 16.1185938,11.3478516 L12.6521875,11.3478516 L12.6521875,8.72605469 Z M12.6521875,12.6478125 L16.1185938,12.6478125 C16.0799219,13.7123828 15.9465625,14.7427344 15.7268359,15.6927734 C14.7590234,15.4578516 13.7226172,15.3153906 12.6521875,15.2739453 L12.6521875,12.6478125 Z M12.6521875,20.5752344 L12.6521875,16.5791797 C13.6022656,16.6185547 14.5184766,16.7433594 15.3716797,16.9463672 C14.9072266,18.309375 13.9993359,20.0807813 12.6521875,20.5752344 Z M15.2512891,20.0645313 C15.8540625,19.2429687 16.3018359,18.270625 16.6221875,17.3163281 C17.2044922,17.5250781 17.7435156,17.7747656 18.2278125,18.0620312 C17.3916016,18.9208203 16.38,19.6078125 15.2512891,20.0645313 Z M19.0744531,17.0507031 C18.4505859,16.6614844 17.7449219,16.3299219 16.97875,16.0617578 C17.2313672,14.9940234 17.3828125,13.8382422 17.4233594,12.6478906 L20.6712109,12.6478906 C20.5496875,14.2798437 19.975625,15.7920703 19.0744531,17.0507031 Z" id="Shape"></path>

</svg>
