<?xml version="1.0" encoding="UTF-8"?>
<svg width="20px" height="20px" viewBox="2 2 20 20" version="1.1" xmlns="http://www.w3.org/2000/svg" xmlns:xlink="http://www.w3.org/1999/xlink">
    <path d="M13.8439716,8.10763454 C14.2276069,8.10763454 14.5406758,8.42070345 14.5406758,8.80433876 C14.5406758,9.18797406 14.2276069,9.50104297 13.8439716,9.50104297 L11.2740926,9.50104297 C10.7774609,9.50104297 10.3729662,9.90553769 10.3729662,10.4021694 C10.3729662,10.8988011 10.7774609,11.3032958 11.2740926,11.3032958 L12.7300793,11.3032958 C13.9946866,11.3032958 15.0204422,12.3304623 15.0204422,13.5978306 C15.0204422,14.8507339 14.0097746,15.8740701 12.7551106,15.8923655 L12.6967042,15.8923655 L12.6967042,16.7392574 C12.6967042,17.1228927 12.3836353,17.4359616 12,17.4359616 C11.6163647,17.4359616 11.3032958,17.1228927 11.3032958,16.7392574 L11.3032958,15.8923655 L10.1143096,15.8923655 C9.73067425,15.8923655 9.41760534,15.5792966 9.41760534,15.1956612 C9.41760534,14.8120259 9.73067425,14.498957 10.1143096,14.498957 L12.7300793,14.498957 C13.226711,14.498957 13.6312057,14.0944623 13.6312057,13.5978306 C13.6312057,13.1011989 13.226711,12.6967042 12.7300793,12.6967042 L11.2740926,12.6967042 C10.0101903,12.6967042 8.97955778,11.6660717 8.97955778,10.4021694 C8.97955778,9.13826707 10.0101903,8.10763454 11.2740926,8.10763454 L11.3074677,8.10763454 L11.3074677,7.281602 C11.3074677,6.89796669 11.6205366,6.58489779 12.0041719,6.58489779 C12.3878072,6.58489779 12.7008761,6.89796669 12.7008761,7.281602 L12.7008761,8.10763454 L13.8439716,8.10763454 Z M19.0723155,4.92768453 C20.9607985,6.8161676 22,9.32719944 22,12 C22,14.6728006 20.9607985,17.1838324 19.0723155,19.0723155 C17.1838324,20.9607985 14.6728006,22 12,22 C9.32719944,22 6.8161676,20.9607985 4.92768453,19.0723155 C3.03920145,17.1838324 2,14.6728006 2,12 C2,9.32719944 3.03920145,6.8161676 4.92768453,4.92768453 C6.8161676,3.03920145 9.32719944,2 12,2 C14.6728006,2 17.1838324,3.03920145 19.0723155,4.92768453 Z M12,20.6065916 C16.7436071,20.6065916 20.6065916,16.7436071 20.6065916,12 C20.6065916,7.25639292 16.7436071,3.39340843 12,3.39340843 C7.25639292,3.39340843 3.39340843,7.25639292 3.39340843,12 C3.39340843,16.7436071 7.25639292,20.6065916 12,20.6065916 Z" id="Shape"></path>
</svg>
