<?xml version="1.0" encoding="UTF-8"?>
<svg width="14px" height="14px" viewBox="0 0 14 14" version="1.1" xmlns="http://www.w3.org/2000/svg" xmlns:xlink="http://www.w3.org/1999/xlink">
    <g id="Settings" stroke="none" stroke-width="1" fill="none" fill-rule="evenodd">
        <g id="Bank-Account" transform="translate(-377.000000, -280.000000)" fill="#D63649">
            <g id="bank-account-list" transform="translate(149.000000, 172.000000)">
                <g id="Component/Card-Kanban-Copy">
                    <g id="balance-IDR" transform="translate(24.000000, 66.000000)">
                        <g id="icon-warning-solid" transform="translate(203.000000, 41.000000)">
                            <path d="M8,1.33333333 C11.6761111,1.33333333 14.6666667,4.32444444 14.6666667,8 C14.6666667,11.6761111 11.6761111,14.6666667 8,14.6666667 C4.32388889,14.6666667 1.33333333,11.6761111 1.33333333,8 C1.33333333,4.32444444 4.32388889,1.33333333 8,1.33333333 Z M8,4 C8.36872812,4 8.66666667,4.21082973 8.66666667,4.47052364 L8.66666667,8.86280969 C8.66666667,9.12305264 8.36872812,9.33333333 8,9.33333333 C7.63204979,9.33333333 7.33333333,9.12305264 7.33333333,8.86280969 L7.33333333,4.47052364 C7.33333333,4.21082973 7.63204979,4 8,4 Z M8,10 C8.36872812,10 8.66666667,10.2987165 8.66666667,10.6666667 C8.66666667,11.0353948 8.36872812,11.3333333 8,11.3333333 C7.63204979,11.3333333 7.33333333,11.0353948 7.33333333,10.6666667 C7.33333333,10.2987165 7.63204979,10 8,10 Z"></path>
                        </g>
                    </g>
                </g>
            </g>
        </g>
    </g>
</svg>