<?xml version="1.0" encoding="UTF-8"?>
<svg width="24px" height="24px" viewBox="0 0 24 24" version="1.1" xmlns="http://www.w3.org/2000/svg" xmlns:xlink="http://www.w3.org/1999/xlink">
    <path d="M21.2683333,19.5788182 C21.6725,19.5788182 22,19.8970909 22,20.2898182 C22,20.6817273 21.6725,21 21.2683333,21 L2.73166667,21 C2.3275,21 2,20.6817273 2,20.2898182 C2,19.8970909 2.3275,19.5788182 2.73166667,19.5788182 L21.2683333,19.5788182 Z M13.4635,10.5789818 C14.2242843,10.5789818 14.8492439,11.1421174 14.9201361,11.8632072 L14.9268333,12.0001636 L14.9268333,17.2103455 C14.9268333,17.9488267 14.3466257,18.5561271 13.6044533,18.625019 L13.4635,18.6315273 L11.5118333,18.6315273 C10.751049,18.6315273 10.1260894,18.0676669 10.0551972,17.347174 L10.0485,17.2103455 L10.0485,12.0001636 C10.0485,11.2609123 10.6287076,10.6542913 11.3708801,10.5854821 L11.5118333,10.5789818 L13.4635,10.5789818 Z M17.3655833,7.26305455 L19.31725,7.26305455 C20.0780343,7.26305455 20.7029939,7.82691488 20.7738861,8.54740782 L20.7805833,8.68423636 L20.7805833,17.2105091 C20.7805833,17.9489904 20.2003757,18.5562908 19.4582033,18.6251826 L19.31725,18.6316909 L17.3655833,18.6316909 C16.604799,18.6316909 15.9798394,18.0678306 15.9089472,17.3473376 L15.90225,17.2105091 L15.90225,8.68423636 C15.90225,7.94575508 16.4824576,7.33845467 17.2246301,7.26956286 L17.3655833,7.26305455 L19.31725,7.26305455 Z M7.60941667,3 C8.41775,3 9.07275,3.63654545 9.07275,4.42118182 L9.07275,4.42118182 L9.07275,17.2101818 C9.07275,17.9956364 8.41775,18.6313636 7.60941667,18.6313636 L7.60941667,18.6313636 L5.65858333,18.6313636 C4.85025,18.6313636 4.19525,17.9956364 4.19525,17.2101818 L4.19525,17.2101818 L4.19525,4.42118182 C4.19525,3.63654545 4.85025,3 5.65858333,3 L5.65858333,3 Z M13.4635,12.0001636 L11.5118333,12.0001636 L11.5118333,17.2103455 L13.4635,17.2103455 L13.4635,12.0001636 Z M19.31725,8.68423636 L17.3655833,8.68423636 L17.3655833,17.2105091 L19.31725,17.2105091 L19.31725,8.68423636 Z M7.60941667,4.42118182 L5.65858333,4.42118182 L5.65858333,17.2101818 L7.60941667,17.2101818 L7.60941667,4.42118182 Z"></path>

</svg>
