<?xml version="1.0" encoding="UTF-8"?>
<svg width="8px" height="20px" viewBox="0 0 8 20" version="1.1" xmlns="http://www.w3.org/2000/svg" xmlns:xlink="http://www.w3.org/1999/xlink">
    <g id="Settings" stroke="none" stroke-width="1" fill="none" fill-rule="evenodd">
        <g id="Manage-Label" transform="translate(-294.000000, -316.000000)" fill="#BFC5D2">
            <g id="Module/Table" transform="translate(286.000000, 220.000000)">
                <g id="Component/Content/Transaction-Info" transform="translate(0.000000, 26.000000)">
                    <g id="Table-Row" transform="translate(0.000000, 53.000000)">
                        <g id="Element/Icon/Drag-24" transform="translate(0.000000, 15.000000)">
                            <path d="M9.5,16.3333333 C8.67157288,16.3333333 8,15.6617605 8,14.8333333 C8,14.0049062 8.67157288,13.3333333 9.5,13.3333333 C10.3284271,13.3333333 11,14.0049062 11,14.8333333 C11,15.6617605 10.3284271,16.3333333 9.5,16.3333333 Z M9.5,22 C8.67157288,22 8,21.3284271 8,20.5 C8,19.6715729 8.67157288,19 9.5,19 C10.3284271,19 11,19.6715729 11,20.5 C11,21.3284271 10.3284271,22 9.5,22 Z M9.5,10.6666667 C8.67157288,10.6666667 8,9.99509379 8,9.16666667 C8,8.33823954 8.67157288,7.66666667 9.5,7.66666667 C10.3284271,7.66666667 11,8.33823954 11,9.16666667 C11,9.99509379 10.3284271,10.6666667 9.5,10.6666667 Z M9.5,5 C8.67157288,5 8,4.32842712 8,3.5 C8,2.67157288 8.67157288,2 9.5,2 C10.3284271,2 11,2.67157288 11,3.5 C11,4.32842712 10.3284271,5 9.5,5 Z M14.5,16.3333333 C13.6715729,16.3333333 13,15.6617605 13,14.8333333 C13,14.0049062 13.6715729,13.3333333 14.5,13.3333333 C15.3284271,13.3333333 16,14.0049062 16,14.8333333 C16,15.6617605 15.3284271,16.3333333 14.5,16.3333333 Z M14.5,22 C13.6715729,22 13,21.3284271 13,20.5 C13,19.6715729 13.6715729,19 14.5,19 C15.3284271,19 16,19.6715729 16,20.5 C16,21.3284271 15.3284271,22 14.5,22 Z M14.5,10.6666667 C13.6715729,10.6666667 13,9.99509379 13,9.16666667 C13,8.33823954 13.6715729,7.66666667 14.5,7.66666667 C15.3284271,7.66666667 16,8.33823954 16,9.16666667 C16,9.99509379 15.3284271,10.6666667 14.5,10.6666667 Z M14.5,5 C13.6715729,5 13,4.32842712 13,3.5 C13,2.67157288 13.6715729,2 14.5,2 C15.3284271,2 16,2.67157288 16,3.5 C16,4.32842712 15.3284271,5 14.5,5 Z" id="icon-drag"></path>
                        </g>
                    </g>
                </g>
            </g>
        </g>
    </g>
</svg>
