<?xml version="1.0" encoding="UTF-8"?>
<svg width="24px" height="24px" viewBox="1 1 18 18" version="1.1" xmlns="http://www.w3.org/2000/svg" xmlns:xlink="http://www.w3.org/1999/xlink">
    <path d="M10,17.1430555 C13.9451389,17.1430555 17.1430556,13.9451388 17.1430556,9.99999997 C17.1430556,6.05555555 13.9451389,2.8576389 10,2.8576389 C6.05486109,2.8576389 2.8569444,6.05555555 2.8569444,9.99999997 C2.8569444,13.9451388 6.05486109,17.1430555 10,17.1430555 Z M10,1.66666667 C14.5951389,1.66666667 18.3333333,5.40555556 18.3333333,10 C18.3333333,14.5951389 14.5951389,18.3333333 10,18.3333333 C5.40486111,18.3333333 1.66666667,14.5951389 1.66666667,10 C1.66666667,5.40555556 5.40486111,1.66666667 10,1.66666667 Z M10,5 C10.4609102,5 10.8333333,5.26353716 10.8333333,5.58815455 L10.8333333,11.0785121 C10.8333333,11.4038158 10.4609102,11.6666667 10,11.6666667 C9.54006223,11.6666667 9.16666667,11.4038158 9.16666667,11.0785121 L9.16666667,5.58815455 C9.16666667,5.26353716 9.54006223,5 10,5 Z M10,12.5 C10.4609102,12.5 10.8333333,12.8733956 10.8333333,13.3333333 C10.8333333,13.7942435 10.4609102,14.1666667 10,14.1666667 C9.54006223,14.1666667 9.16666667,13.7942435 9.16666667,13.3333333 C9.16666667,12.8733956 9.54006223,12.5 10,12.5 Z" id="icon-warning"></path>
</svg>
