<?xml version="1.0" encoding="UTF-8"?>
<svg width="20px" height="20px" viewBox="2 2 20 20" version="1.1" xmlns="http://www.w3.org/2000/svg" xmlns:xlink="http://www.w3.org/1999/xlink">
    <path d="M4.39992406,15.8105556 L5.25480947,15.3169873 C5.49395578,15.1789161 5.79975099,15.2608537 5.93782217,15.5 C6.07589336,15.7391463 5.99395578,16.0449415 5.75480947,16.1830127 L4.90071243,16.6761259 C6.33522169,18.8496058 8.74107576,20.3255015 11.5,20.4855382 L11.5,19.5 C11.5,19.2238576 11.7238576,19 12,19 C12.2761424,19 12.5,19.2238576 12.5,19.5 L12.5,20.4855382 C15.2589242,20.3255015 17.6647783,18.8496058 19.0992876,16.6761259 L18.2451905,16.1830127 C18.0060442,16.0449415 17.9241066,15.7391463 18.0621778,15.5 C18.200249,15.2608537 18.5060442,15.1789161 18.7451905,15.3169873 L19.6000759,15.8105556 C20.1758568,14.6644152 20.5,13.3700615 20.5,12 C20.5,10.6299385 20.1758568,9.33558479 19.6000759,8.18944438 L18.7451905,8.6830127 C18.5060442,8.82108389 18.200249,8.73914631 18.0621778,8.5 C17.9241066,8.26085369 18.0060442,7.95505849 18.2451905,7.8169873 L19.0992876,7.32387414 C17.6647783,5.15039416 15.2589242,3.6744985 12.5,3.51446179 L12.5,4.5 C12.5,4.77614237 12.2761424,5 12,5 C11.7238576,5 11.5,4.77614237 11.5,4.5 L11.5,3.51446179 C8.74107576,3.6744985 6.33522169,5.15039416 4.90071243,7.32387414 L5.75480947,7.8169873 C5.99395578,7.95505849 6.07589336,8.26085369 5.93782217,8.5 C5.79975099,8.73914631 5.49395578,8.82108389 5.25480947,8.6830127 L4.39992406,8.18944438 C3.82414323,9.33558479 3.5,10.6299385 3.5,12 C3.5,13.3700615 3.82414323,14.6644152 4.39992406,15.8105556 L4.39992406,15.8105556 Z M12,22 C6.4771525,22 2,17.5228475 2,12 C2,6.4771525 6.4771525,2 12,2 C17.5228475,2 22,6.4771525 22,12 C22,17.5228475 17.5228475,22 12,22 Z M15.8897895,9.14605263 C16.2091053,8.96889474 16.6114737,9.08410526 16.7883158,9.40336842 C16.9653158,9.72263158 16.8501579,10.1250526 16.5308947,10.3021579 L13.0866316,12.2132632 C12.9871579,12.723 12.5386316,13.1078421 11.9997895,13.1078421 C11.4609474,13.1078421 11.0124737,12.7230526 10.9129474,12.2132632 L7.46857895,10.3021579 C7.14926316,10.125 7.03410526,9.72257895 7.21115789,9.40336842 C7.38836842,9.08415789 7.79084211,8.96889474 8.11,9.14605263 L11.4858421,11.0191053 C11.6395263,10.9383684 11.8141579,10.8921579 11.9998421,10.8921579 C12.1856316,10.8921579 12.3602105,10.9384211 12.5138947,11.0191053 L15.8897895,9.14605263 Z" id="Shape"></path>
</svg>
