<?xml version="1.0" encoding="UTF-8"?>
<svg width="20px" height="20px" viewBox="2 2 20 20" version="1.1" xmlns="http://www.w3.org/2000/svg" xmlns:xlink="http://www.w3.org/1999/xlink">
    <path d="M20.7,8 L3.3,8 L3.3,19 C3.3,19.9388841 4.06111593,20.7 5,20.7 L19,20.7 C19.9388841,20.7 20.7,19.9388841 20.7,19 L20.7,8 Z M5,2 L19,2 C20.6568542,2 22,3.34314575 22,5 L22,19 C22,20.6568542 20.6568542,22 19,22 L5,22 C3.34314575,22 2,20.6568542 2,19 L2,5 C2,3.34314575 3.34314575,2 5,2 Z M20.7,6.7 L20.7,5 C20.7,4.06111593 19.9388841,3.3 19,3.3 L5,3.3 C4.06111593,3.3 3.3,4.06111593 3.3,5 L3.3,6.7 L20.7,6.7 Z M6,6 C5.44771525,6 5,5.55228475 5,5 C5,4.44771525 5.44771525,4 6,4 C6.55228475,4 7,4.44771525 7,5 C7,5.55228475 6.55228475,6 6,6 Z M9,6 C8.44771525,6 8,5.55228475 8,5 C8,4.44771525 8.44771525,4 9,4 C9.55228475,4 10,4.44771525 10,5 C10,5.55228475 9.55228475,6 9,6 Z M12,6 C11.4477153,6 11,5.55228475 11,5 C11,4.44771525 11.4477153,4 12,4 C12.5522847,4 13,4.44771525 13,5 C13,5.55228475 12.5522847,6 12,6 Z" id="Shape"></path>

</svg>
