<?xml version="1.0" encoding="UTF-8"?>
<svg width="20px" height="20px" viewBox="49 10 20 20" version="1.1" xmlns="http://www.w3.org/2000/svg" xmlns:xlink="http://www.w3.org/1999/xlink">
    <path d="M54.2375124,10 C54.4520957,10 54.6655216,10.0711806 54.8392099,10.2116127 L54.9383457,10.3041667 L58.7475124,14.4158333 C59.104179,14.8008333 59.0800124,15.4008333 58.694179,15.7558333 C58.3364867,16.0842949 57.7963092,16.0889694 57.4347935,15.7849321 L57.3483457,15.7025 L55.031679,13.2033333 L55.031679,29.0516667 C55.031679,29.575 54.6058457,30 54.079179,30 C53.5909052,30 53.1888559,29.6335459 53.1339115,29.1621854 L53.1275124,29.0516667 L53.1275124,13.1458333 L50.6058457,15.5125 C50.224179,15.8716667 49.6200124,15.855 49.259179,15.4725 C48.9261021,15.1209615 48.9161021,14.5819675 49.2173811,14.2186311 L49.299179,14.1316667 L53.426679,10.2583333 C53.606679,10.0891667 53.841679,10 54.0800124,10 C54.1050124,10 54.129179,10.0133333 54.154179,10.015 C54.1825124,10.0125 54.2100124,10 54.2375124,10 Z M68.5676122,21.6001667 C68.6559455,21.6001667 68.7284455,21.6285 68.7834455,21.6843333 C68.8392789,21.7401667 68.8676122,21.8118333 68.8676122,21.9001667 L68.8676122,21.9001667 L68.8676122,22.7401667 C68.8676122,22.9001667 68.8159455,23.0401667 68.7117789,23.1601667 L68.7117789,23.1601667 L64.6442789,28.5601667 L68.7117789,28.5601667 C68.7992789,28.5601667 68.8692789,28.586 68.9217789,28.6385 C68.9734455,28.6901667 69.0001122,28.7601667 69.0001122,28.8485 L69.0001122,28.8485 L69.0001122,29.7118333 C69.0001122,29.7926667 68.9734455,29.861 68.9217789,29.916 C68.8692789,29.9726667 68.7992789,30.0001667 68.7117789,30.0001667 L68.7117789,30.0001667 L62.6992789,30.0001667 C62.6117789,30.0001667 62.5417789,29.9726667 62.4892789,29.916 C62.4376122,29.861 62.4109455,29.7885 62.4109455,29.7001667 L62.4109455,29.7001667 L62.4109455,28.8485 C62.4109455,28.7443333 62.4292789,28.6601667 62.4659455,28.596 C62.5017789,28.5326667 62.5442789,28.4685 62.5917789,28.4043333 L62.5917789,28.4043333 L66.7559455,23.0401667 L62.8201122,23.0401667 C62.7392789,23.0401667 62.6717789,23.0126667 62.6159455,22.956 C62.5592789,22.9001667 62.5317789,22.8285 62.5317789,22.7401667 L62.5317789,22.7401667 L62.5317789,21.9001667 C62.5317789,21.8118333 62.5576122,21.7401667 62.6101122,21.6843333 C62.6617789,21.6285 62.7317789,21.6001667 62.8201122,21.6001667 L62.8201122,21.6001667 Z M64.3436955,10.0001667 L65.6636955,10.0001667 C65.842267,10.0001667 65.9730833,10.0736361 66.0571941,10.2205748 L66.0953622,10.3001667 L68.9761955,18.0401667 L68.9995289,18.1476667 C68.9995289,18.2201667 68.9736955,18.2801667 68.9220289,18.3285 C68.8870289,18.3601667 68.8498066,18.381463 68.8098684,18.392142 L68.7478622,18.4001667 L67.6795289,18.4001667 C67.5392511,18.4001667 67.4360103,18.3469259 67.3683599,18.241409 L67.3320289,18.1718333 L66.7795289,16.7193333 L63.2278622,16.7193333 L62.6761955,18.1718333 C62.6220289,18.2982222 62.5325613,18.3725278 62.4073105,18.3937855 L62.3278622,18.4001667 L61.2595289,18.4001667 C61.1878622,18.4001667 61.1278622,18.376 61.0803622,18.3285 C61.0475844,18.2962778 61.0262881,18.2588704 61.0157326,18.2160309 L61.0078622,18.1476667 L61.0311955,18.0401667 L63.9111955,10.3001667 C63.9804812,10.1287381 64.0956853,10.0307789 64.2583821,10.0062891 L64.3436955,10.0001667 L65.6636955,10.0001667 Z M65.0036955,11.6318333 L63.6478622,15.3285 L66.3595289,15.3285 L65.0036955,11.6318333 Z" id="icon-sort-descending"></path>
</svg>
