<?xml version="1.0" encoding="UTF-8"?>
<svg width="24px" height="24px" viewBox="0 0 24 24" version="1.1" xmlns="http://www.w3.org/2000/svg" xmlns:xlink="http://www.w3.org/1999/xlink">
    <path d="M21.5485769,11.120223 C21.9580237,10.703757 22.1025733,10.0925377 21.9259163,9.52509878 C21.7492151,8.95765982 21.2879637,8.55188543 20.7221313,8.46612209 L15.7744103,7.71591183 C15.6772931,7.70121086 15.5933369,7.63756811 15.5498793,7.54567553 L13.3372061,2.86740325 C13.0841892,2.33236172 12.5717955,2 12,2 C11.4282064,2 10.9158128,2.33236172 10.6627958,2.86740325 L8.45012266,7.54572162 C8.40662087,7.63756811 8.3227088,7.70121086 8.22554744,7.71595792 L3.27791477,8.46612209 C2.71208239,8.55188543 2.25087513,8.95765982 2.07412979,9.52509878 C1.89738446,10.0925377 2.04197822,10.703757 2.45146915,11.120223 L6.03164413,14.7617775 C6.10190945,14.8333007 6.13401686,14.9362996 6.1174111,15.0372709 L5.27223984,20.1791997 C5.17560846,20.7672846 5.40287769,21.3503923 5.86545405,21.7010956 C6.32803042,22.0518912 6.92990082,22.0971923 7.43593481,21.8196251 L11.8612369,19.3919375 C11.9481521,19.34424 12.051894,19.34424 12.1388534,19.3919375 L16.5641996,21.8196251 C16.7843142,21.9403666 17.022492,22 17.2595216,22 C17.5673464,22 17.873228,21.8993513 18.1345479,21.7010495 C18.5971242,21.3503001 18.8244376,20.7671463 18.7277621,20.1791536 L17.8825908,15.0372248 C17.8660292,14.9362535 17.8980925,14.8332546 17.9683578,14.7617314 L21.5485769,11.120223 Z" id="icon-star-solid"></path>
</svg>
