<?xml version="1.0" encoding="UTF-8"?>
<svg width="24px" height="24px" viewBox="0 0 24 24" version="1.1" xmlns="http://www.w3.org/2000/svg" xmlns:xlink="http://www.w3.org/1999/xlink">
    <path d="M19.2733333,3 C20.0258333,3 20.6366667,3.6363 20.6366667,4.4211 L20.6366667,4.4211 L20.6366667,8.6844 C21.39,8.6844 22,9.3198 22,10.1055 L22,10.1055 L22,13.8945 C22,14.6802 21.39,15.3156 20.6366667,15.3156 L20.6366667,15.3156 L20.6366667,19.5789 C20.6366667,20.3637 20.0258333,21 19.2733333,21 L19.2733333,21 L3.36333333,21 C2.61,21 2,20.3637 2,19.5789 L2,19.5789 L2,4.4211 C2,3.6363 2.61,3 3.36333333,3 L3.36333333,3 Z M19.2733333,4.4211 L3.36333333,4.4211 L3.36333333,19.5789 L19.2733333,19.5789 L19.2733333,15.3156 L17,15.3156 C16.2466667,15.3156 15.6366667,14.6802 15.6366667,13.8945 L15.6366667,13.8945 L15.6366667,10.1055 C15.6366667,9.3198 16.2466667,8.6844 17,8.6844 L17,8.6844 L19.2733333,8.6844 L19.2733333,4.4211 Z M20.6366667,10.1046 L17,10.1046 L17,13.8945 L20.6366667,13.8945 L20.6366667,10.1046 Z M18.818,11.28954 C19.1946667,11.28954 19.4996667,11.60724 19.4996667,11.99964 C19.4996667,12.39204 19.1946667,12.71064 18.818,12.71064 C18.4413333,12.71064 18.1363333,12.39204 18.1363333,11.99964 C18.1363333,11.60724 18.4413333,11.28954 18.818,11.28954 Z" id="path-1"></path>
</svg>


