<?xml version="1.0" encoding="UTF-8"?>
<svg width="24px" height="24px" viewBox="0 0 24 24" version="1.1" xmlns="http://www.w3.org/2000/svg" xmlns:xlink="http://www.w3.org/1999/xlink">
    <path d="M14.365718,7.41348202 C14.6386825,7.13583802 14.7350489,6.7283585 14.6172775,6.35006586 C14.4994768,5.97177321 14.1919758,5.70125695 13.8147542,5.64408139 L10.5162735,5.14394122 C10.4515288,5.13414058 10.3955579,5.09171207 10.3665862,5.03045036 L8.89147076,1.91160217 C8.72279277,1.55490781 8.38119701,1.33333333 8.00000064,1.33333333 C7.61880427,1.33333333 7.27720851,1.55490781 7.10853052,1.91160217 L5.63341511,5.03048108 C5.60441391,5.09171207 5.54847253,5.13414058 5.4836983,5.14397194 L2.18527652,5.64408139 C1.80805493,5.70125695 1.50058342,5.97177321 1.3827532,6.35006586 C1.26492298,6.7283585 1.36131881,7.13583802 1.63431277,7.41348202 L4.02109609,9.84118498 C4.06793964,9.88886712 4.08934458,9.95753308 4.07827407,10.0248472 L3.51482656,13.4527998 C3.45040564,13.8448564 3.60191846,14.2335948 3.9103027,14.4673971 C4.21868694,14.7012608 4.61993388,14.7314615 4.95728987,14.5464167 L7.90749126,12.9279583 C7.96543475,12.89616 8.03459597,12.89616 8.09256891,12.9279583 L11.0427997,14.5464167 C11.1895428,14.6269111 11.348328,14.6666667 11.5063477,14.6666667 C11.7115643,14.6666667 11.9154853,14.5995676 12.0896986,14.4673664 C12.3980828,14.2335334 12.5496251,13.8447642 12.4851747,13.4527691 L11.9217272,10.0248165 C11.9106861,9.95750236 11.9320616,9.88883639 11.9789052,9.84115425 L14.365718,7.41348202 Z M11.1379299,10.1651595 L11.7013774,13.5931737 C11.7202208,13.7078935 11.6523551,13.7733028 11.6222939,13.7960686 C11.5922034,13.8188036 11.5115889,13.8660249 11.4128965,13.8118295 L8.46266556,12.193371 C8.31783625,12.113952 8.15896272,12.0741964 8.00005974,12.0741964 C7.84115676,12.0741964 7.68225378,12.113952 7.53745391,12.1933403 L4.58725242,13.811768 C4.48850115,13.8659327 4.40791611,13.8187729 4.37785498,13.7960071 C4.34779384,13.7732414 4.27989867,13.707832 4.29877152,13.5931122 L4.86221905,10.1651595 C4.91754214,9.82858876 4.81069409,9.48535108 4.57629968,9.2469711 L2.18951628,6.81926807 C2.10963787,6.73797494 2.12771577,6.64344018 2.13922792,6.60657254 C2.15068118,6.56967418 2.18933962,6.48208283 2.29972081,6.4653695 L5.59811327,5.96522931 C5.92195501,5.91613391 6.20180915,5.70402212 6.3466679,5.39774424 L7.82178337,2.27886522 C7.871159,2.1744991 7.96290288,2.16322374 8.00008918,2.16322374 C8.03721659,2.16322374 8.12895115,2.17446837 8.17836554,2.27886522 L8.17836554,2.27889595 L9.65348101,5.39777496 C9.79831032,5.70405284 10.078135,5.91616463 10.4019768,5.96526003 L13.7004281,6.46540022 C13.8108093,6.48211355 13.8494383,6.56970491 13.860921,6.60660326 C13.8724037,6.64350162 13.890511,6.7380671 13.8106032,6.81929879 L11.4238198,9.24700182 C11.1894548,9.48535108 11.0826068,9.82858876 11.1379299,10.1651595 Z" id="icon-star"></path>
</svg>
