<?xml version="1.0" encoding="UTF-8"?>
<svg width="24px" height="24px" viewBox="0 0 24 24" version="1.1" xmlns="http://www.w3.org/2000/svg" xmlns:xlink="http://www.w3.org/1999/xlink">
    <path d="M14.5,18.8360677 L14.5,19.78125 C14.5,21.2120655 11.7209338,22 8.25,22 C4.77906621,22 2,21.2120655 2,19.78125 L2,14.90625 C2,14.8881068 2.00077308,14.8701442 2.00228809,14.8523933 C2.00076584,14.82886 2,14.8051454 2,14.78125 C2,13.3456733 4.76414106,12.5625 8.25,12.5625 C8.67885827,12.5625 9.09679269,12.574354 9.5,12.5978186 L9.5,4.34375 C9.5,4.32560682 9.50077308,4.3076442 9.50228809,4.28989328 C9.50076584,4.26636001 9.5,4.24264538 9.5,4.21875 C9.5,2.7831733 12.2641411,2 15.75,2 C19.2358589,2 22,2.7831733 22,4.21875 L22,16.65625 C22,18.0870655 19.2209338,18.875 15.75,18.875 C15.3209834,18.875 14.9043208,18.8620365 14.5,18.8360677 L14.5,18.8360677 Z M3.25,16.2075305 L3.25,17.2812499 C3.25,17.6051259 5.51577398,18.25 8.25,18.25 C10.984226,18.25 13.25,17.6051259 13.25,17.28125 L13.25,16.2075305 C12.1154694,16.7268658 10.3085854,17 8.25,17 C6.1914146,17 4.3845306,16.7268658 3.25,16.2075305 Z M14.5,16.3360677 L14.5,17.583297 C14.9020368,17.6110817 15.3187085,17.625 15.75,17.625 C18.4627655,17.625 20.75,16.9765121 20.75,16.65625 L20.75,15.5784624 C19.6129541,16.0994903 17.8024365,16.375 15.75,16.375 C15.3209834,16.375 14.9043208,16.3620365 14.5,16.3360677 L14.5,16.3360677 Z M3.25,18.7071932 L3.25,19.78125 C3.25,20.1015121 5.53723446,20.75 8.25,20.75 C10.9627655,20.75 13.25,20.1015121 13.25,19.78125 L13.25,18.7071932 C12.1162391,19.2263032 10.3104647,19.5 8.25,19.5 C6.18953528,19.5 4.38376089,19.2263032 3.25,18.7071932 L3.25,18.7071932 Z M14.5,15.083297 C14.9020368,15.1110817 15.3187085,15.125 15.75,15.125 C18.4627655,15.125 20.75,14.4765121 20.75,14.15625 L20.75,13.0784624 C19.6129541,13.5994903 17.8024365,13.875 15.75,13.875 C15.1350365,13.875 14.5417914,13.8502659 13.9818732,13.8016044 C14.3155561,14.0831171 14.5,14.410417 14.5,14.78125 L14.5,15.083297 L14.5,15.083297 Z M20.75,5.64503051 C19.6154694,6.16436583 17.8085854,6.4375 15.75,6.4375 C13.6914146,6.4375 11.8845306,6.16436583 10.75,5.64503051 L10.75,6.6562501 C10.75,6.97651207 13.0372345,7.625 15.75,7.625 C18.4627655,7.625 20.75,6.97651207 20.75,6.65625 L20.75,5.64503051 L20.75,5.64503051 Z M20.75,8.07846237 C19.6129541,8.59949029 17.8024365,8.875 15.75,8.875 C13.6975635,8.875 11.8870459,8.59949029 10.75,8.07846237 L10.75,9.1562501 C10.75,9.47651207 13.0372345,10.125 15.75,10.125 C18.4627655,10.125 20.75,9.47651207 20.75,9.15625 L20.75,8.07846237 L20.75,8.07846237 Z M20.75,10.5784624 C19.6129541,11.0994903 17.8024365,11.375 15.75,11.375 C13.6975635,11.375 11.8870459,11.0994903 10.75,10.5784624 L10.75,11.6562501 C10.75,11.9765121 13.0372345,12.625 15.75,12.625 C18.4627655,12.625 20.75,11.9765121 20.75,11.65625 L20.75,10.5784624 L20.75,10.5784624 Z M15.75,5.1875 C18.4773445,5.1875 20.75,4.54358094 20.75,4.21875 C20.75,3.89391906 18.4773445,3.25 15.75,3.25 C13.0226555,3.25 10.75,3.89391906 10.75,4.21875 C10.75,4.54358094 13.0226555,5.1875 15.75,5.1875 Z M8.25,15.75 C10.9773445,15.75 13.25,15.1060809 13.25,14.78125 C13.25,14.4564191 10.9773445,13.8125 8.25,13.8125 C5.5226555,13.8125 3.25,14.4564191 3.25,14.78125 C3.25,15.1060809 5.5226555,15.75 8.25,15.75 Z" id="icon-coins"></path>
</svg>
