<?xml version="1.0" encoding="UTF-8"?>
<svg width="14px" height="14px" viewBox="0 0 14 14" version="1.1" xmlns="http://www.w3.org/2000/svg" xmlns:xlink="http://www.w3.org/1999/xlink">
    <g id="Dashboard" stroke="none" stroke-width="1" fill-rule="evenodd">
        <g id="Transaction-Banks" transform="translate(-307.000000, -763.000000)">
            <g id="Table" transform="translate(286.000000, 191.000000)">
                <g id="Component/Content/Transaction-Info" transform="translate(0.000000, 81.000000)">
                    <g id="Transaction-Details-Copy" transform="translate(0.000000, 55.000000)">
                        <g id="button" transform="translate(20.000000, 434.000000)">
                            <g id="Element/Icon/Split" transform="translate(0.000000, 1.000000)">
                                <path d="M12.2054224,9.75700315 C11.2711876,9.75700315 10.4544151,10.2801193 10.0391996,11.0484463 L8.60779895,8.34295466 L11.8776207,2.13912346 C12.0196681,1.88301448 11.934986,1.54244404 11.6508912,1.40076674 C11.3941132,1.25908943 11.0526531,1.3435509 10.9106058,1.62690551 L7.98770744,7.17139234 L5.07573585,1.65415115 C4.93368845,1.39804217 4.61954518,1.28633507 4.33545039,1.42801237 C4.0786724,1.56968968 3.9666735,1.88301448 4.10872089,2.16636909 L7.37854265,8.32933185 L5.95260534,11.0320989 C5.53192652,10.2719457 4.72334904,9.75700315 3.79457761,9.75700315 C2.43693232,9.75700315 1.33333333,10.8577268 1.33333333,12.2118349 C1.33333333,13.565943 2.43693232,14.6666667 3.79457761,14.6666667 C4.80803114,14.6666667 5.68216895,14.0509153 6.05914089,13.1763304 L7.99863416,9.49272048 L9.89715222,13.0673479 C10.2468073,13.9991486 11.148262,14.6639421 12.2054224,14.6639421 C13.5630677,14.6639421 14.6666667,13.5632184 14.6666667,12.2091103 C14.6666667,10.8550023 13.5630404,9.75700315 12.2054224,9.75700315 Z M3.7945776,13.5523202 C3.05429215,13.5523202 2.45332241,12.9529162 2.45332241,12.2145594 C2.45332241,11.4762026 3.05429215,10.8767986 3.7945776,10.8767986 C4.53486305,10.8767986 5.13583279,11.4762026 5.13583279,12.2145594 C5.13583279,12.9529162 4.53486305,13.5523202 3.7945776,13.5523202 Z M12.2054221,13.5523202 C11.4651366,13.5523202 10.8641669,12.9529162 10.8641669,12.2145594 C10.8641669,11.4762026 11.4651366,10.8767986 12.2054221,10.8767986 C12.9457075,10.8767986 13.5466773,11.4762026 13.5466773,12.2145594 C13.5466773,12.9529162 12.9456802,13.5523202 12.2054221,13.5523202 Z" id="Shape"></path>
                            </g>
                        </g>
                    </g>
                </g>
            </g>
        </g>
    </g>
</svg>
