<?xml version="1.0" encoding="UTF-8"?>
<svg width="20px" height="20px" viewBox="49 10 20 20" version="1.1" xmlns="http://www.w3.org/2000/svg" xmlns:xlink="http://www.w3.org/1999/xlink">
    <path d="M53.9768,22.9999 C54.8078,22.9999 55.4338,23.2399 55.8548,23.7199 C56.2768,24.1999 56.5038,24.8219 56.5358,25.5859 C56.5478,25.9499 56.5538,26.2539 56.5538,26.4999 C56.5538,26.7459 56.5478,27.0449 56.5358,27.3949 C56.4978,28.1729 56.2728,28.8009 55.8598,29.2809 C55.4468,29.7609 54.8188,29.9999 53.9768,29.9999 C53.1328,29.9999 52.5048,29.7609 52.0928,29.2809 C51.6808,28.8009 51.4558,28.1729 51.4178,27.3949 C51.4118,27.2449 51.4087388,27.0045327 51.4079866,26.6731682 L51.4079866,26.3243723 C51.4087388,25.9882673 51.4118,25.7419 51.4178,25.5859 C51.4488,24.8219 51.6758,24.1999 52.0978,23.7199 C52.5188,23.2399 53.1458,22.9999 53.9768,22.9999 Z M60.1995,22.9999 C61.0305,22.9999 61.6565,23.2399 62.0775,23.7199 C62.4995,24.1999 62.7265,24.8219 62.7585,25.5859 C62.7695,25.9499 62.7765,26.2539 62.7765,26.4999 C62.7765,26.7459 62.7695,27.0449 62.7585,27.3949 C62.7205,28.1729 62.4945,28.8009 62.0825,29.2809 C61.6695,29.7609 61.0415,29.9999 60.1995,29.9999 C59.3555,29.9999 58.7275,29.7609 58.3155,29.2809 C57.9035,28.8009 57.6785,28.1729 57.6395,27.3949 C57.6343571,27.2449 57.6314184,27.0045327 57.6306837,26.6731682 L57.6306837,26.3243723 C57.6314184,25.9882673 57.6343571,25.7419 57.6395,25.5859 C57.6715,24.8219 57.8985,24.1999 58.3195,23.7199 C58.7415,23.2399 59.3675,22.9999 60.1995,22.9999 Z M66.4221,22.9999 C67.2521,22.9999 67.8801,23.2399 68.3001,23.7199 C68.7221,24.1999 68.9491,24.8219 68.9801,25.5859 C68.9931,25.9499 69.0001,26.2539 69.0001,26.4999 C69.0001,26.7459 68.9931,27.0449 68.9801,27.3949 C68.9431,28.1729 68.7171,28.8009 68.3051,29.2809 C67.8931,29.7609 67.2651,29.9999 66.4221,29.9999 C65.5781,29.9999 64.9501,29.7609 64.5381,29.2809 C64.1251,28.8009 63.9001,28.1729 63.8621,27.3949 C63.8578143,27.2699 63.8550592,27.0821449 63.8538347,26.8312703 L63.8538347,26.1638009 C63.8550592,25.9086551 63.8578143,25.7159 63.8621,25.5859 C63.8941,24.8219 64.1211,24.1999 64.5421,23.7199 C64.9651,23.2399 65.5901,22.9999 66.4221,22.9999 Z M50.18,28.4543 C50.243,28.4543 50.296,28.4763 50.341,28.5223 C50.3703333,28.5529667 50.3898889,28.5876333 50.3996667,28.6263 L50.407,28.6873 L50.407,29.6693 C50.407,29.7343 50.387,29.7893 50.345,29.8353 C50.3183333,29.8653 50.2845556,29.8855222 50.2445556,29.8956704 L50.18,29.9033 L49.227,29.9033 C49.164,29.9033 49.111,29.8803 49.066,29.8353 C49.0366667,29.8046333 49.0171111,29.7699667 49.0073333,29.7310037 L49,29.6693 L49,28.6873 C49,28.6233 49.022,28.5683 49.066,28.5223 C49.096,28.4916333 49.1295556,28.4716333 49.1672593,28.4617074 L49.227,28.4543 L50.18,28.4543 Z M53.9768,24.1179 C53.5858,24.1249 53.2928,24.2609 53.0978,24.5269 C52.9028,24.7929 52.7988,25.1619 52.7858,25.6349 C52.7808,25.8099 52.7768,26.0919 52.7768,26.4809 C52.7768,26.8689 52.7808,27.1579 52.7858,27.3459 C52.7988,27.8319 52.9028,28.2059 53.0978,28.4689 C53.2928,28.7309 53.5858,28.8629 53.9768,28.8629 C54.3668,28.8629 54.6588,28.7309 54.8538,28.4689 C55.0498,28.2059 55.1528,27.8319 55.1658,27.3459 C55.1704667,27.2205667 55.1729111,27.0503444 55.1740222,26.8358259 L55.1740222,26.1275667 C55.1729111,25.9157889 55.1704667,25.7515667 55.1658,25.6349 C55.1528,25.1619 55.0498,24.7929 54.8538,24.5269 C54.6588,24.2609 54.3668,24.1249 53.9768,24.1179 Z M60.1995,24.1179 C59.8075,24.1249 59.5155,24.2609 59.3205,24.5269 C59.1255,24.7929 59.0215,25.1619 59.0085,25.6349 C59.0043333,25.7807333 59.0008611,26.0008722 58.9998194,26.2953167 L58.9998194,26.6666407 C59.0008611,26.9624278 59.0043333,27.1892333 59.0085,27.3459 C59.0215,27.8319 59.1255,28.2059 59.3205,28.4689 C59.5155,28.7309 59.8075,28.8629 60.1995,28.8629 C60.5895,28.8629 60.8815,28.7309 61.0765,28.4689 C61.2725,28.2059 61.3755,27.8319 61.3885,27.3459 C61.3935,27.1892333 61.3964167,26.9624278 61.39725,26.6666407 L61.39725,26.2953167 C61.3964167,26.0008722 61.3935,25.7807333 61.3885,25.6349 C61.3755,25.1619 61.2725,24.7929 61.0765,24.5269 C60.8815,24.2609 60.5895,24.1249 60.1995,24.1179 Z M66.4221,24.1179 C66.0311,24.1249 65.7381,24.2609 65.5441,24.5269 C65.3481,24.7929 65.2451,25.1619 65.2321,25.6349 C65.2274333,25.7515667 65.2249889,25.9157889 65.2238778,26.1275667 L65.2238778,26.8358259 C65.2249889,27.0503444 65.2274333,27.2205667 65.2321,27.3459 C65.2451,27.8319 65.3481,28.2059 65.5441,28.4689 C65.7381,28.7309 66.0311,28.8629 66.4221,28.8629 C66.8111,28.8629 67.1051,28.7309 67.3001,28.4689 C67.4951,28.2059 67.5991,27.8319 67.6111,27.3459 C67.6171,27.1579 67.6211,26.8689 67.6211,26.4809 C67.6211,26.0919 67.6171,25.8099 67.6111,25.6349 C67.5991,25.1619 67.4951,24.7929 67.3001,24.5269 C67.1051,24.2609 66.8111,24.1249 66.4221,24.1179 Z M62.5284,12.0003 C64.4144,12.0003 65.9504,13.7343 65.9504,15.8673 L65.9504,15.8673 L65.9504,17.9333 L67.6774,16.1243 C67.9714,15.8183 68.4554,15.8073 68.7624,16.1003 C69.0694,16.3923 69.0794,16.8783 68.7864,17.1853 L68.7864,17.1853 L65.7864,20.3253 C65.6424,20.4763 65.4424,20.5613 65.2324,20.5613 C65.0244,20.5393 64.8194,20.4753 64.6734,20.3203 L64.6734,20.3203 L61.8884,17.3633 C61.5984,17.0553 61.6134,16.5693 61.9214,16.2793 C62.2284,15.9883 62.7144,16.0023 63.0054,16.3113 L63.0054,16.3113 L64.4954,17.8933 L64.4954,15.8673 C64.4954,14.5373 63.6134,13.4543 62.5284,13.4543 L62.5284,13.4543 L56.0144,13.4543 C55.6134,13.4543 55.2874,13.1293 55.2874,12.7273 C55.2874,12.3253 55.6134,12.0003 56.0144,12.0003 L56.0144,12.0003 Z M51.4962,10 C52.3032,10 52.9112,10.24 53.3202,10.72 C53.7312,11.199 53.9512,11.822 53.9822,12.586 C53.9932,12.949 54.0002,13.254 54.0002,13.5 C54.0002,13.746 53.9932,14.045 53.9822,14.395 C53.9452,15.173 53.7262,15.801 53.3262,16.281 C52.9242,16.76 52.3152,17 51.4962,17 C50.6762,17 50.0662,16.76 49.6652,16.281 C49.2652,15.801 49.0462,15.173 49.0092,14.395 C49.0049143,14.27 49.0021592,14.0822449 49.0009347,13.8313703 L49.0009347,13.1634636 C49.0021592,12.9082449 49.0049143,12.716 49.0092,12.586 C49.0402,11.822 49.2602,11.199 49.6702,10.72 C50.0792,10.24 50.6892,10 51.4962,10 Z M51.4962,11.118 C51.1162,11.125 50.8322,11.261 50.6422,11.527 C50.4532,11.793 50.3522,12.162 50.3392,12.635 C50.3350333,12.7808333 50.3315611,13.0009722 50.3305194,13.2954167 L50.3305194,13.6667407 C50.3315611,13.9625278 50.3350333,14.1893333 50.3392,14.346 C50.3522,14.832 50.4532,15.206 50.6422,15.469 C50.8322,15.731 51.1162,15.863 51.4962,15.863 C51.8752,15.863 52.1592,15.731 52.3482,15.469 C52.5392,15.206 52.6392,14.832 52.6522,14.346 C52.6572,14.1893333 52.6594222,13.9625278 52.6600241,13.6667407 L52.6600241,13.2954167 C52.6594222,13.0009722 52.6572,12.7808333 52.6522,12.635 C52.6392,12.162 52.5392,11.793 52.3482,11.527 C52.1592,11.261 51.8752,11.125 51.4962,11.118 Z" id="icon-decimal"></path>
</svg>
