<?xml version="1.0" encoding="UTF-8"?>
<svg width="20px" height="20px" viewBox="10 10 20 20" version="1.1" xmlns="http://www.w3.org/2000/svg" xmlns:xlink="http://www.w3.org/1999/xlink">
    <path d="M14.9208622,10 C15.409136,10 15.8111853,10.3664541 15.8661297,10.8378146 L15.8725289,10.9483333 L15.8725289,26.8541667 L18.3941955,24.4875 C18.7758622,24.1283333 19.3800289,24.145 19.7408622,24.5275 C20.0739391,24.8790385 20.0839391,25.4180325 19.7826601,25.7813689 L19.7008622,25.8683333 L15.5733622,29.7416667 C15.3933622,29.9108333 15.1583622,30 14.9200289,30 C14.8950289,30 14.8708622,29.9866667 14.8458622,29.985 C14.8175289,29.9875 14.7900289,30 14.7625289,30 C14.5479455,30 14.3345196,29.9288194 14.1608313,29.7883873 L14.0616955,29.6958333 L10.2525289,25.5841667 C9.89586219,25.1991667 9.92002886,24.5991667 10.3058622,24.2441667 C10.6635545,23.9157051 11.203732,23.9110306 11.5652477,24.2150679 L11.6516955,24.2975 L13.9683622,26.7966667 L13.9683622,10.9483333 C13.9683622,10.425 14.3941955,10 14.9208622,10 Z M29.5676122,21.6001667 C29.6559455,21.6001667 29.7284455,21.6285 29.7834455,21.6843333 C29.8392789,21.7401667 29.8676122,21.8118333 29.8676122,21.9001667 L29.8676122,21.9001667 L29.8676122,22.7401667 C29.8676122,22.9001667 29.8159455,23.0401667 29.7117789,23.1601667 L29.7117789,23.1601667 L25.6442789,28.5601667 L29.7117789,28.5601667 C29.7992789,28.5601667 29.8692789,28.586 29.9217789,28.6385 C29.9734455,28.6901667 30.0001122,28.7601667 30.0001122,28.8485 L30.0001122,28.8485 L30.0001122,29.7118333 C30.0001122,29.7926667 29.9734455,29.861 29.9217789,29.916 C29.8692789,29.9726667 29.7992789,30.0001667 29.7117789,30.0001667 L29.7117789,30.0001667 L23.6992789,30.0001667 C23.6117789,30.0001667 23.5417789,29.9726667 23.4892789,29.916 C23.4376122,29.861 23.4109455,29.7885 23.4109455,29.7001667 L23.4109455,29.7001667 L23.4109455,28.8485 C23.4109455,28.7443333 23.4292789,28.6601667 23.4659455,28.596 C23.5017789,28.5326667 23.5442789,28.4685 23.5917789,28.4043333 L23.5917789,28.4043333 L27.7559455,23.0401667 L23.8201122,23.0401667 C23.7392789,23.0401667 23.6717789,23.0126667 23.6159455,22.956 C23.5592789,22.9001667 23.5317789,22.8285 23.5317789,22.7401667 L23.5317789,22.7401667 L23.5317789,21.9001667 C23.5317789,21.8118333 23.5576122,21.7401667 23.6101122,21.6843333 C23.6617789,21.6285 23.7317789,21.6001667 23.8201122,21.6001667 L23.8201122,21.6001667 Z M25.3436955,10.0001667 L26.6636955,10.0001667 C26.842267,10.0001667 26.9730833,10.0736361 27.0571941,10.2205748 L27.0953622,10.3001667 L29.9761955,18.0401667 L29.9995289,18.1476667 C29.9995289,18.2201667 29.9736955,18.2801667 29.9220289,18.3285 C29.8870289,18.3601667 29.8498066,18.381463 29.8098684,18.392142 L29.7478622,18.4001667 L28.6795289,18.4001667 C28.5392511,18.4001667 28.4360103,18.3469259 28.3683599,18.241409 L28.3320289,18.1718333 L27.7795289,16.7193333 L24.2278622,16.7193333 L23.6761955,18.1718333 C23.6220289,18.2982222 23.5325613,18.3725278 23.4073105,18.3937855 L23.3278622,18.4001667 L22.2595289,18.4001667 C22.1878622,18.4001667 22.1278622,18.376 22.0803622,18.3285 C22.0475844,18.2962778 22.0262881,18.2588704 22.0157326,18.2160309 L22.0078622,18.1476667 L22.0311955,18.0401667 L24.9111955,10.3001667 C24.9804812,10.1287381 25.0956853,10.0307789 25.2583821,10.0062891 L25.3436955,10.0001667 L26.6636955,10.0001667 Z M26.0036955,11.6318333 L24.6478622,15.3285 L27.3595289,15.3285 L26.0036955,11.6318333 Z" id="icon-sort-ascending"></path>
</svg>
