<?xml version="1.0" encoding="UTF-8"?>
<svg width="16px" height="16px" viewBox="0 0 16 16" version="1.1" xmlns="http://www.w3.org/2000/svg" xmlns:xlink="http://www.w3.org/1999/xlink">
    <path d="M8,1.33333333 C11.6761111,1.33333333 14.6666667,4.32444444 14.6666667,8 C14.6666667,11.6761111 11.6761111,14.6666667 8,14.6666667 C4.32388889,14.6666667 1.33333333,11.6761111 1.33333333,8 C1.33333333,4.32444444 4.32388889,1.33333333 8,1.33333333 Z M7.99999976,2.24222223 C4.8199999,2.24222223 2.24222223,4.82055545 2.24222223,7.99999976 C2.24222223,11.1799996 4.8199999,13.7577773 7.99999976,13.7577773 C11.1799996,13.7577773 13.7577773,11.1799996 13.7577773,7.99999976 C13.7577773,4.82055545 11.1799996,2.24222223 7.99999976,2.24222223 Z M7.84811114,3.90933339 C8.09977781,3.90933339 8.30311114,4.11266672 8.30311114,4.36377784 L8.30311114,4.36377784 L8.30311114,7.69711121 L11.0303333,7.69711121 C11.2814444,7.69711121 11.4847778,7.90044454 11.4847778,8.15155566 C11.4847778,8.40266677 11.2814444,8.60600011 11.0303333,8.60600011 L11.0303333,8.60600011 L7.39422226,8.60600011 L7.39422226,4.36377784 C7.39422226,4.11266672 7.59755559,3.90933339 7.84811114,3.90933339 Z" id="icon-time"></path>
</svg>