<?xml version="1.0" encoding="UTF-8"?>
<svg width="12px" height="14px" viewBox="2 1 12 14" version="1.1" xmlns="http://www.w3.org/2000/svg" xmlns:xlink="http://www.w3.org/1999/xlink">
    <path d="M8.14457193,7.75606283 C7.26241047,7.75606283 6.49845378,7.43949381 5.8739624,6.81530762 C5.24967448,6.1910197 4.93310547,5.427063 4.93310547,4.54459636 C4.93310547,3.66233318 5.24967448,2.89837646 5.8739624,2.27408854 C6.49825031,1.64980063 7.26210531,1.33333333 8.14457193,1.33333333 C9.02683513,1.33333333 9.79079182,1.64980063 10.4151815,2.27398682 C11.0395711,2.89847818 11.3560384,3.6624349 11.3560384,4.54459636 C11.3560384,5.427063 11.0394694,6.19091798 10.4152832,6.8152059 C9.79089354,7.43959556 9.02693685,7.75606283 8.14457193,7.75606283 Z M13.7637736,11.5860189 C13.7815755,11.8399251 13.7907308,12.1049194 13.7907308,12.3735758 C13.7907308,13.0697835 13.5694784,13.6334432 13.133077,14.0486857 C12.7020671,14.4587402 12.1319987,14.6666667 11.4387411,14.6666667 L5.01865641,14.6666667 C4.32519531,14.6666667 3.75512695,14.4587402 3.32421875,14.0486857 C2.88791911,13.633138 2.66666667,13.0696818 2.66666667,12.3736776 C2.66666667,12.1059367 2.67561849,11.8409424 2.6933187,11.5863241 C2.71132406,11.3259074 2.74763997,11.0423991 2.80135091,10.7435303 C2.85546875,10.4420166 2.92515055,10.1570841 3.00846354,9.89656576 C3.09472656,9.62709555 3.21191406,9.36128745 3.35666912,9.10646566 C3.5068156,8.84208172 3.68341065,8.61187745 3.88157146,8.42226157 C4.08898927,8.22379558 4.34279378,8.06439209 4.63596599,7.94832357 C4.92822266,7.83256021 5.25211589,7.77386475 5.59879558,7.77386475 C5.73490396,7.77386475 5.86653646,7.82971193 6.12054443,7.99521891 C6.27933756,8.0986735 6.46244303,8.2166748 6.66477459,8.34596761 C6.83913167,8.45725506 7.07584636,8.56152344 7.36779787,8.65582277 C7.65313722,8.74808756 7.9426473,8.7948812 8.22829183,8.7948812 C8.51413982,8.7948812 8.8036499,8.74808756 9.08878581,8.65582277 C9.38104248,8.56142172 9.61765545,8.45715334 9.79231772,8.34586589 C9.99658204,8.21535238 10.1795858,8.09735107 10.3360392,7.99532063 C10.5902507,7.82981365 10.7218831,7.77396646 10.8579915,7.77396646 C11.2045695,7.77396646 11.5285645,7.83256021 11.8209229,7.94822186 C12.1142985,8.06449381 12.3680013,8.2238973 12.5752157,8.42215985 C12.7733765,8.61167399 12.9499715,8.84197998 13.1002198,9.10646566 C13.2451782,9.36128745 13.362264,9.62719727 13.448527,9.89646404 C13.5319417,10.1569824 13.6016236,10.4420166 13.6557414,10.7435303 C13.7093506,11.042806 13.7457682,11.3262126 13.7637736,11.5860189 L13.7637736,11.5860189 Z" id="icon-user"></path>
</svg>
