<?xml version="1.0" encoding="UTF-8"?>
<svg width="18px" height="20px" viewBox="0 0 18 20" version="1.1" xmlns="http://www.w3.org/2000/svg" xmlns:xlink="http://www.w3.org/1999/xlink">
    <g id="Dashboard" stroke="none" stroke-width="1" fill-rule="evenodd">
        <g id="Transaction-Banks-Selected" transform="translate(-778.000000, -289.000000)">
            <g id="Table" transform="translate(286.000000, 191.000000)">
                <g id="Component/Content/Transaction-Info" transform="translate(0.000000, 81.000000)">
                    <g id="Element/Icon/Note" transform="translate(489.000000, 15.000000)">
                        <path d="M15.7838496,2 C17.454589,2 18.8245858,3.30686088 18.9170817,4.94793595 L18.9220591,5.125 L18.9220591,9.9296875 C18.9220591,10.3611719 18.570815,10.7109375 18.1375067,10.7109375 C17.7403074,10.7109375 17.4120649,10.4170372 17.3601161,10.035701 L17.3529543,9.9296875 L17.3529543,5.125 C17.3529543,4.31130208 16.7250925,3.6408777 15.9264637,3.56889752 L15.7838496,3.5625 L6.13820953,3.5625 C5.32107207,3.5625 4.64781377,4.18771894 4.57552932,4.98298616 L4.56910476,5.125 L4.56910476,18.875 C4.56910476,19.6886979 5.19696654,20.3591223 5.99559539,20.4311025 L6.13820953,20.4375 L8.76210574,20.4375 C9.19541402,20.4375 9.54665812,20.7872656 9.54665812,21.21875 C9.54665812,21.6142773 9.25151551,21.9411382 8.86856736,21.9928683 L8.76210574,22 L6.13820953,22 C4.46747006,22 3.09747331,20.6931391 3.00497739,19.052064 L3,18.875 L3,5.125 C3,3.4612931 4.31238504,2.09706302 5.96039702,2.00495644 L6.13820953,2 L15.7838496,2 Z M20.3116975,13.3114062 C21.1877126,14.1837713 21.2275315,15.5782009 20.4311882,16.4979584 L20.3117367,16.6260156 L16.0134488,20.8981641 C15.9416623,20.9695312 15.8569012,21.0261108 15.764031,21.0651013 L15.668638,21.098125 L12.5019885,21.9716016 C12.4328302,21.9907031 12.3623774,22 12.2925915,22 C12.0840182,22 11.8806622,21.9170703 11.7309696,21.7642969 C11.5561223,21.5858447 11.4787943,21.3368713 11.5179067,21.0947579 L11.5418533,20.9916406 L12.4799033,17.9164453 C12.5080884,17.8241016 12.5530874,17.738042 12.6124179,17.6624359 L12.6764337,17.5904687 L16.983744,13.3107812 C17.9008465,12.3975391 19.3940066,12.3975781 20.3116975,13.3114062 Z M16.8304032,15.6704687 L13.9240681,18.5581641 L13.4578479,20.0866406 L15.0509599,19.6471875 L17.9401525,16.7755469 L16.8304032,15.6704687 Z M18.1806029,14.3408051 L18.0927088,14.4163281 L17.9412117,14.566875 L19.0507649,15.6717578 L19.2027719,15.5207031 C19.5081197,15.2165625 19.5081197,14.7209375 19.2022227,14.4163281 C18.9241346,14.1394105 18.487515,14.1142362 18.1806029,14.3408051 Z M11.8262143,12.9375 C12.2595226,12.9375 12.6107667,13.2872656 12.6107667,13.71875 C12.6107667,14.1142773 12.3156241,14.4411382 11.9326759,14.4928683 L11.8262143,14.5 L6.91840764,14.5 C6.48509936,14.5 6.13385526,14.1502344 6.13385526,13.71875 C6.13385526,13.3232227 6.42899787,12.9963618 6.81194602,12.9446317 L6.91840764,12.9375 L11.8262143,12.9375 Z M14.9992972,9.8125 C15.4326055,9.8125 15.7838496,10.1622656 15.7838496,10.59375 C15.7838496,10.9892773 15.4887069,11.3161382 15.1057588,11.3678683 L14.9992972,11.375 L6.91840764,11.375 C6.48509936,11.375 6.13385526,11.0252344 6.13385526,10.59375 C6.13385526,10.1982227 6.42899787,9.87136176 6.81194602,9.81963166 L6.91840764,9.8125 L14.9992972,9.8125 Z M14.9992972,6.6875 C15.4326055,6.6875 15.7838496,7.03726562 15.7838496,7.46875 C15.7838496,7.90023438 15.4326055,8.25 14.9992972,8.25 L14.9992972,8.25 L6.91840764,8.25 C6.48509936,8.25 6.13385526,7.90023438 6.13385526,7.46875 C6.13385526,7.03726562 6.48509936,6.6875 6.91840764,6.6875 L6.91840764,6.6875 Z" id="icon-note"></path>
                    </g>
                </g>
            </g>
        </g>
    </g>
</svg>
