<?xml version="1.0" encoding="UTF-8"?>
<svg width="20px" height="20px" viewBox="2 2 20 20" version="1.1" xmlns="http://www.w3.org/2000/svg" xmlns:xlink="http://www.w3.org/1999/xlink">
    <path d="M16.7265625,2 C19.6343359,2 22,4.36566406 22,7.2734375 L22,8.4453125 C22,9.41457031 21.2114453,10.203125 20.2421875,10.203125 L17.8984375,10.203125 C16.9291797,10.203125 16.140625,9.41457031 16.140625,8.4453125 L16.140625,7.2734375 C16.140625,6.95035156 15.8777734,6.6875 15.5546875,6.6875 L8.4453125,6.6875 C8.12222656,6.6875 7.859375,6.95035156 7.859375,7.2734375 L7.859375,8.4453125 C7.859375,9.41457031 7.07082031,10.203125 6.1015625,10.203125 L3.7578125,10.203125 C2.78855469,10.203125 2,9.41457031 2,8.4453125 L2,7.2734375 C2,4.36566406 4.36566406,2 7.2734375,2 L16.7265625,2 Z M6.6875,8.4453125 L6.6875,7.859375 L3.171875,7.859375 L3.171875,8.4453125 C3.171875,8.76839844 3.43472656,9.03125 3.7578125,9.03125 L6.1015625,9.03125 C6.42464844,9.03125 6.6875,8.76839844 6.6875,8.4453125 Z M15.5546875,5.515625 C16.3185547,5.515625 16.9698437,6.00554688 17.2117187,6.6875 L20.7860937,6.6875 C20.5008984,4.7025 18.7892578,3.171875 16.7265625,3.171875 L7.2734375,3.171875 C5.21078125,3.171875 3.49910156,4.7025 3.21390625,6.6875 L6.78828125,6.6875 C7.03015625,6.00554688 7.68144531,5.515625 8.4453125,5.515625 L15.5546875,5.515625 Z M20.828125,8.4453125 L20.828125,7.859375 L17.3125,7.859375 L17.3125,8.4453125 C17.3125,8.76839844 17.5753516,9.03125 17.8984375,9.03125 L20.2421875,9.03125 C20.5652734,9.03125 20.828125,8.76839844 20.828125,8.4453125 Z M20.6044141,18.4154297 C20.7525391,18.7716016 20.828125,19.1500781 20.828125,19.5381641 L20.828125,20.2421875 C20.828125,21.2114453 20.0395703,22 19.0703125,22 L4.9296875,22 C3.96042969,22 3.171875,21.2114453 3.171875,20.2421875 L3.171875,19.5381641 C3.171875,19.1501563 3.24742188,18.7717187 3.39640625,18.4133984 L6.39019531,11.1351172 C6.56089844,10.7199609 7.17800781,10.203125 7.93695312,10.203125 L9.03125,10.203125 L9.03125,9.6171875 C9.03125,8.64792969 9.81980469,7.859375 10.7890625,7.859375 L13.2109375,7.859375 C14.1801953,7.859375 14.96875,8.64792969 14.96875,9.6171875 L14.96875,10.203125 L16.0630859,10.203125 C16.6769531,10.203125 17.2545312,10.5301563 17.5703906,11.0565234 C17.6040625,11.1126563 17.4125781,10.6555859 20.6044141,18.4154297 Z M10.203125,9.6171875 L10.203125,10.203125 L13.796875,10.203125 L13.796875,9.6171875 C13.796875,9.29410156 13.5340234,9.03125 13.2109375,9.03125 L10.7890625,9.03125 C10.4659766,9.03125 10.203125,9.29410156 10.203125,9.6171875 Z M19.65625,20.2421875 L19.65625,19.5381641 C19.65625,19.3053125 19.6109375,19.0782812 19.5215625,18.8633203 L16.5457422,11.6288281 C16.4372266,11.4714062 16.2555078,11.375 16.0630859,11.375 L7.93695313,11.375 C7.74449219,11.375 7.56277344,11.4714062 7.45425781,11.6288281 L4.47929688,18.8612109 C4.3890625,19.0782812 4.34375,19.3053516 4.34375,19.5381641 L4.34375,20.2421875 C4.34375,20.5652734 4.60660156,20.828125 4.9296875,20.828125 L19.0703125,20.828125 C19.3933984,20.828125 19.65625,20.5652734 19.65625,20.2421875 Z M12.0390625,12.546875 C13.9775781,12.546875 15.5546875,14.1239844 15.5546875,16.0625 C15.5546875,18.0010156 13.9775781,19.578125 12.0390625,19.578125 C10.1005469,19.578125 8.5234375,18.0010156 8.5234375,16.0625 C8.5234375,14.1239844 10.1005469,12.546875 12.0390625,12.546875 Z M12.0390625,18.40625 C13.3314063,18.40625 14.3828125,17.3548438 14.3828125,16.0625 C14.3828125,14.7701562 13.3314063,13.71875 12.0390625,13.71875 C10.7467187,13.71875 9.6953125,14.7701562 9.6953125,16.0625 C9.6953125,17.3548438 10.7467187,18.40625 12.0390625,18.40625 Z M12.0390625,14.890625 C12.6852344,14.890625 13.2109375,15.4163281 13.2109375,16.0625 C13.2109375,16.7086719 12.6852344,17.234375 12.0390625,17.234375 C11.3928906,17.234375 10.8671875,16.7086719 10.8671875,16.0625 C10.8671875,15.4163281 11.3928906,14.890625 12.0390625,14.890625 Z" id="Shape"></path>

</svg>
