<?xml version="1.0" encoding="UTF-8"?>
<svg width="20px" height="20px" viewBox="2 2 20 20" version="1.1" xmlns="http://www.w3.org/2000/svg" xmlns:xlink="http://www.w3.org/1999/xlink">
    <path d="M21.7665235,10.5024474 C22.0510155,10.7568504 22.0795085,11.1982964 21.8300301,11.4886435 C21.6946334,11.6462828 21.5051547,11.7268354 21.3146898,11.7268354 C21.154526,11.7268354 20.9935404,11.6697051 20.8635135,11.5535439 L20.1422562,10.9086202 L20.1422562,21.3012441 C20.1422562,21.6871251 19.8356274,22 19.4573276,22 L4.54259441,22 C4.1642946,22 3.85766572,21.6871251 3.85766572,21.3012441 L3.85766572,10.9085643 L3.13640842,11.5534321 C2.85197123,11.8078351 2.41915109,11.778711 2.16983705,11.4885876 C1.92052301,11.1982964 1.94901604,10.7567945 2.23345323,10.5024474 L11.5484834,2.17327748 C11.8068933,1.94224084 12.1930287,1.94224084 12.4514934,2.17327748 L21.7665235,10.5024474 Z M10.4183511,20.6025442 L13.5815709,20.6025442 L13.5815709,14.8463052 L10.4183511,14.8463052 L10.4183511,20.6025442 Z M18.7725085,9.68909557 C18.7725085,9.68730675 18.7727349,9.68568564 18.7727349,9.68384092 L11.9999884,3.62791949 L5.22735871,9.68389682 C5.22735871,9.68562974 5.22757789,9.68730675 5.22757789,9.68909557 L5.22757789,20.6025442 L9.04860326,20.6025442 L9.04860326,14.1475493 C9.04860326,13.7616683 9.35528693,13.4487934 9.73353195,13.4487934 L14.266664,13.4487934 C14.6448542,13.4487934 14.9515927,13.7616683 14.9515927,14.1475493 L14.9515927,20.6025442 L18.7725085,20.6025442 L18.7725085,9.68909557 Z M10.4657481,8.54744028 C10.4657481,8.16150344 10.7724318,7.84868442 11.1506768,7.84868442 L12.8493,7.84868442 C13.227545,7.84868442 13.5342286,8.16150344 13.5342286,8.54744028 C13.5342286,8.93337712 13.227545,9.24619615 12.8493,9.24619615 L11.1506768,9.24619615 C10.772377,9.24619615 10.4657481,8.93337712 10.4657481,8.54744028 Z" id="Shape"></path>
</svg>
