<?xml version="1.0" encoding="UTF-8"?>
<svg width="22px" height="22px" viewBox="0 0 22 22" version="1.1" xmlns="http://www.w3.org/2000/svg" xmlns:xlink="http://www.w3.org/1999/xlink">
    <path d="M5.02883333,19.55525 L1.88558333,16.5 L16.9711667,1.83333333 L20.1144167,4.88858333 L5.02883333,19.55525 Z M21.4481667,3.5915 L18.3049167,0.53625 C17.9373333,0.17875 17.45425,0 16.9711667,0 C16.489,0 16.0068333,0.17875 15.6383333,0.53625 L0.55275,15.2029167 C0.198916667,15.5466667 0,16.01325 0,16.5 L0,17.1105 L0,22 L5.02883333,21.3885833 C5.511,21.3885833 5.99408333,21.2098333 6.36258333,20.8514167 L21.4481667,6.18475 C21.8010833,5.841 22,5.37441667 22,4.88858333 C22,4.40183333 21.8010833,3.93525 21.4481667,3.5915 L21.4481667,3.5915 Z" id="icon-edit-copy"></path>
</svg>
