<?xml version="1.0" encoding="UTF-8"?>
<svg width="24px" height="24px" viewBox="0 0 24 24" version="1.1" xmlns="http://www.w3.org/2000/svg" xmlns:xlink="http://www.w3.org/1999/xlink">
    <path d="M21.5485769,11.120223 C21.9580237,10.703757 22.1025733,10.0925377 21.9259163,9.52509878 C21.7492151,8.95765982 21.2879637,8.55188543 20.7221313,8.46612209 L15.7744103,7.71591183 C15.6772931,7.70121086 15.5933369,7.63756811 15.5498793,7.54567553 L13.3372061,2.86740325 C13.0841892,2.33236172 12.5717955,2 12,2 C11.4282064,2 10.9158128,2.33236172 10.6627958,2.86740325 L8.45012266,7.54572162 C8.40662087,7.63756811 8.3227088,7.70121086 8.22554744,7.71595792 L3.27791477,8.46612209 C2.71208239,8.55188543 2.25087513,8.95765982 2.07412979,9.52509878 C1.89738446,10.0925377 2.04197822,10.703757 2.45146915,11.120223 L6.03164413,14.7617775 C6.10190945,14.8333007 6.13401686,14.9362996 6.1174111,15.0372709 L5.27223984,20.1791997 C5.17560846,20.7672846 5.40287769,21.3503923 5.86545405,21.7010956 C6.32803042,22.0518912 6.92990082,22.0971923 7.43593481,21.8196251 L11.8612369,19.3919375 C11.9481521,19.34424 12.051894,19.34424 12.1388534,19.3919375 L16.5641996,21.8196251 C16.7843142,21.9403666 17.022492,22 17.2595216,22 C17.5673464,22 17.873228,21.8993513 18.1345479,21.7010495 C18.5971242,21.3503001 18.8244376,20.7671463 18.7277621,20.1791536 L17.8825908,15.0372248 C17.8660292,14.9362535 17.8980925,14.8332546 17.9683578,14.7617314 L21.5485769,11.120223 Z M16.7068943,15.247739 L17.5520656,20.38976 C17.5803307,20.5618397 17.4785321,20.6599537 17.4334404,20.6941023 C17.3883045,20.7282049 17.2673828,20.7990368 17.1193442,20.7177437 L12.693998,18.2900561 C12.476754,18.1709275 12.2384438,18.1112941 12.0000893,18.1112941 C11.7617348,18.1112941 11.5233804,18.1709275 11.3061806,18.29001 L6.88087851,20.7176515 C6.73275161,20.7988986 6.61187405,20.7281588 6.56678235,20.6940101 C6.52169065,20.6598615 6.41984789,20.5617475 6.44815718,20.3896678 L7.29332844,15.247739 C7.37631307,14.7428828 7.216041,14.2280263 6.8644494,13.8704563 L3.28427443,10.2289019 C3.16445681,10.1069622 3.19157366,9.96516008 3.20884189,9.90985863 C3.22602178,9.85451109 3.28400944,9.72312406 3.44958122,9.69805407 L8.39716972,8.94784381 C8.88293232,8.87420071 9.30271352,8.55603303 9.52000163,8.09661623 L11.7326748,3.41829787 C11.8067382,3.26174868 11.944354,3.24483565 12.0001335,3.24483565 C12.0558246,3.24483565 12.1934404,3.26170259 12.267548,3.41829787 L12.267548,3.41834395 L14.4802211,8.09666232 C14.6974651,8.55607912 15.1172021,8.8742468 15.6029647,8.94788989 L20.5506415,9.69810015 C20.7162133,9.72317015 20.7741568,9.85455717 20.7913809,9.90990471 C20.8086049,9.96525224 20.8357659,10.1071005 20.7159042,10.228948 L17.1357292,13.8705024 C16.7841817,14.2280263 16.6239097,14.7428828 16.7068943,15.247739 Z" id="icon-star"></path>
</svg>
