<?xml version="1.0" encoding="UTF-8"?>
<svg width="124px" height="40px" viewBox="0 0 124 40" version="1.1" xmlns="http://www.w3.org/2000/svg" xmlns:xlink="http://www.w3.org/1999/xlink">
    <!-- Generator: sketchtool 57.1 (101010) - https://sketch.com -->
    <title>19D5F97D-7767-4903-9E74-BFBDDCAF1011@svg</title>
    <desc>Created with sketchtool.</desc>
    <g id="Login/Register" stroke="none" stroke-width="1" fill="none" fill-rule="evenodd">
        <g id="Login" transform="translate(-658.000000, -100.000000)">
            <g id="Base/Logo" transform="translate(658.000000, 100.000000)">
                <path d="M45.7639001,30.6805556 C45.5517046,30.6805556 45.3713411,30.6060193 45.2228042,30.4569444 C45.0742673,30.3078696 45,30.1268529 45,29.9138889 L45,14.8680556 C45,14.6337951 45.0742673,14.4421304 45.2228042,14.2930556 C45.3713411,14.1439807 45.5517046,14.0694444 45.7639001,14.0694444 L48.373892,14.0694444 C48.6073071,14.0694444 48.7982802,14.1439807 48.9468171,14.2930556 C49.095354,14.4421304 49.1696213,14.6337951 49.1696213,14.8680556 L49.1696213,16.1777778 C50.2305989,14.7722152 51.7583838,14.0694444 53.7530218,14.0694444 L55.0898469,14.0694444 C55.323262,14.0694444 55.5089303,14.1386567 55.6468574,14.2770833 C55.7847845,14.41551 55.853747,14.6018507 55.853747,14.8361111 L55.853747,17.1680556 C55.853747,17.3810196 55.7847845,17.5620363 55.6468574,17.7111111 C55.5089303,17.8601859 55.323262,17.9347222 55.0898469,17.9347222 L52.5753425,17.9347222 C51.5780235,17.9347222 50.7929118,18.2222193 50.2199839,18.7972222 C49.647056,19.3722251 49.3605963,20.1601802 49.3605963,21.1611111 L49.3605963,29.9138889 C49.3605963,30.1268529 49.286329,30.3078696 49.1377921,30.4569444 C48.9892552,30.6060193 48.8088917,30.6805556 48.5966962,30.6805556 L45.7639001,30.6805556 Z M64.4794521,31 C62.1028621,31 60.2196551,30.3185253 58.8297744,28.9555556 C57.4398937,27.5925858 56.7025253,25.6546422 56.6176471,23.1416667 L56.5858179,22.3430556 C56.5858179,19.6810052 57.2807478,17.583341 58.6706285,16.05 C60.0605092,14.516659 61.9861548,13.75 64.4476229,13.75 C66.9727497,13.75 68.9196144,14.516659 70.2882756,16.05 C71.6569367,17.583341 72.3412571,19.627765 72.3412571,22.1833333 L72.3412571,22.8541667 C72.3412571,23.0671307 72.2669897,23.2481474 72.1184529,23.3972222 C71.969916,23.546297 71.7789429,23.6208333 71.5455278,23.6208333 L60.9782434,23.6208333 L60.9782434,23.8763889 C61.0206825,25.0689874 61.3442758,26.0539313 61.949033,26.83125 C62.5537903,27.6085687 63.3866452,27.9972222 64.4476229,27.9972222 C65.6571374,27.9972222 66.6438318,27.5074123 67.4077357,26.5277778 C67.5987117,26.2935173 67.7472463,26.1497688 67.8533441,26.0965278 C67.9594418,26.0432868 68.1398053,26.0166667 68.39444,26.0166667 L71.1954069,26.0166667 C71.3863829,26.0166667 71.550832,26.0699069 71.6887591,26.1763889 C71.8266862,26.2828709 71.8956487,26.4319435 71.8956487,26.6236111 C71.8956487,27.1347248 71.5932746,27.7363391 70.9885173,28.4284722 C70.3837601,29.1206053 69.5190763,29.7222222 68.39444,30.2333333 C67.2698037,30.744447 65.9648207,31 64.4794521,31 Z M67.9488316,20.9055556 L67.9488316,20.8416667 C67.9488316,19.5851789 67.6358479,18.578939 67.0098711,17.8229167 C66.3838943,17.0668944 65.5298201,16.6888889 64.4476229,16.6888889 C63.3654257,16.6888889 62.5166563,17.0668944 61.9012893,17.8229167 C61.2859223,18.578939 60.9782434,19.5851789 60.9782434,20.8416667 L60.9782434,20.9055556 L67.9488316,20.9055556 Z M75.7151491,30.6805556 C75.5029535,30.6805556 75.3225901,30.6060193 75.1740532,30.4569444 C75.0255163,30.3078696 74.951249,30.1268529 74.951249,29.9138889 L74.951249,8.76666667 C74.951249,8.53240624 75.0255163,8.34606551 75.1740532,8.20763889 C75.3225901,8.06921227 75.5029535,8 75.7151491,8 L78.3569702,8 C78.5691657,8 78.7495292,8.07453629 78.8980661,8.22361111 C79.0466029,8.37268593 79.1208703,8.55370264 79.1208703,8.76666667 L79.1208703,19.6916667 L84.4045125,14.6125 C84.4681711,14.5699072 84.5689625,14.4900469 84.7068896,14.3729167 C84.8448167,14.2557865 84.9774369,14.1759261 85.1047542,14.1333333 C85.2320715,14.0907405 85.3912158,14.0694444 85.5821918,14.0694444 L88.6059629,14.0694444 C88.8181585,14.0694444 88.9879123,14.1333327 89.1152297,14.2611111 C89.242547,14.3888895 89.3062047,14.5592582 89.3062047,14.7722222 C89.3062047,14.9638898 89.2001085,15.1555546 88.987913,15.3472222 L82.4947623,21.5125 L89.7836422,29.4347222 C89.9746182,29.6263898 90.0701048,29.8074066 90.0701048,29.9777778 C90.0701048,30.1907418 90.0064471,30.3611105 89.8791297,30.4888889 C89.7518124,30.6166673 89.5926682,30.6805556 89.4016922,30.6805556 L86.3142627,30.6805556 C86.017189,30.6805556 85.7996918,30.6432874 85.6617647,30.56875 C85.5238376,30.4942126 85.3487789,30.350464 85.1365834,30.1375 L79.1208703,23.7166667 L79.1208703,29.9138889 C79.1208703,30.1268529 79.0466029,30.3078696 78.8980661,30.4569444 C78.7495292,30.6060193 78.5691657,30.6805556 78.3569702,30.6805556 L75.7151491,30.6805556 Z M92.4891217,30.6805556 C92.2769261,30.6805556 92.0965627,30.6060193 91.9480258,30.4569444 C91.7994889,30.3078696 91.7252216,30.1268529 91.7252216,29.9138889 L91.7252216,8.76666667 C91.7252216,8.53240624 91.7994889,8.34606551 91.9480258,8.20763889 C92.0965627,8.06921227 92.2769261,8 92.4891217,8 L95.1309428,8 C95.3431383,8 95.5235018,8.07453629 95.6720387,8.22361111 C95.8205755,8.37268593 95.8948429,8.55370264 95.8948429,8.76666667 L95.8948429,19.6916667 L101.178485,14.6125 C101.242144,14.5699072 101.342935,14.4900469 101.480862,14.3729167 C101.618789,14.2557865 101.75141,14.1759261 101.878727,14.1333333 C102.006044,14.0907405 102.165188,14.0694444 102.356164,14.0694444 L105.379936,14.0694444 C105.592131,14.0694444 105.761885,14.1333327 105.889202,14.2611111 C106.01652,14.3888895 106.080177,14.5592582 106.080177,14.7722222 C106.080177,14.9638898 105.974081,15.1555546 105.761886,15.3472222 L99.2687349,21.5125 L106.557615,29.4347222 C106.748591,29.6263898 106.844077,29.8074066 106.844077,29.9777778 C106.844077,30.1907418 106.78042,30.3611105 106.653102,30.4888889 C106.525785,30.6166673 106.366641,30.6805556 106.175665,30.6805556 L103.088235,30.6805556 C102.791162,30.6805556 102.573664,30.6432874 102.435737,30.56875 C102.29781,30.4942126 102.122752,30.350464 101.910556,30.1375 L95.8948429,23.7166667 L95.8948429,29.9138889 C95.8948429,30.1268529 95.8205755,30.3078696 95.6720387,30.4569444 C95.5235018,30.6060193 95.3431383,30.6805556 95.1309428,30.6805556 L92.4891217,30.6805556 Z M114.546737,31 C112.594538,31 111.056143,30.3611175 109.931507,29.0833333 C108.806871,27.8055492 108.244561,26.0486223 108.244561,23.8125 L108.244561,14.8361111 C108.244561,14.6018507 108.318828,14.41551 108.467365,14.2770833 C108.615902,14.1386567 108.796265,14.0694444 109.008461,14.0694444 L111.873086,14.0694444 C112.085282,14.0694444 112.265645,14.1439807 112.414182,14.2930556 C112.562719,14.4421304 112.636986,14.6231471 112.636986,14.8361111 L112.636986,23.6208333 C112.636986,26.2402909 113.772215,27.55 116.042707,27.55 C117.146124,27.55 118.021418,27.1986146 118.668614,26.4958333 C119.31581,25.793052 119.639404,24.8347283 119.639404,23.6208333 L119.639404,14.8361111 C119.639404,14.6018507 119.713671,14.41551 119.862208,14.2770833 C120.010745,14.1386567 120.191108,14.0694444 120.403304,14.0694444 L123.2361,14.0694444 C123.469515,14.0694444 123.655183,14.1386567 123.79311,14.2770833 C123.931037,14.41551 124,14.6018507 124,14.8361111 L124,29.9138889 C124,30.1268529 123.931037,30.3078696 123.79311,30.4569444 C123.655183,30.6060193 123.469515,30.6805556 123.2361,30.6805556 L120.594279,30.6805556 C120.382083,30.6805556 120.20172,30.6060193 120.053183,30.4569444 C119.904646,30.3078696 119.830379,30.1268529 119.830379,29.9138889 L119.830379,28.6041667 C118.663303,30.2013969 116.902107,31 114.546737,31 Z" id="rekku" fill="#2E384D" fill-rule="nonzero"></path>
                <g id="logo">
                    <path d="M26.668,25.3377 C29.922,22.7177 32,18.7407 32,14.2857 C32,6.3957 25.488,-0.0003 17.455,-0.0003 L17.455,28.5717 L17.455,39.9997 L29.936,39.9997 C30.942,39.9997 31.644,39.0217 31.306,38.0907 L26.668,25.3377 Z" id="Fill-1" fill="#2E384D"></path>
                    <path d="M0.0001,14.2859 C0.0001,18.7409 2.0781,22.7179 5.3321,25.3379 L0.6941,38.0909 C0.3561,39.0209 1.0581,39.9999 2.0641,39.9999 L14.5451,39.9999 L14.5451,28.5719 L14.5451,-0.0001 C6.5121,-0.0001 0.0001,6.3959 0.0001,14.2859" id="Fill-4" fill="#2E5BFF"></path>
                </g>
            </g>
        </g>
    </g>
</svg>